<svg xmlns="http://www.w3.org/2000/svg" viewBox="0 0 69.38 41.29"><defs><style>.cls-1{fill:#fff;}</style></defs><g id="Layer_2" data-name="Layer 2"><g id="Layer_1-2" data-name="Layer 1"><path class="cls-1" d="M49.64,18.31c-1.89-.35-3.47-.6-5-1a2.4,2.4,0,0,1-1.25-.92c-.22-.31-.13-.84-.18-1.27.42,0,1-.15,1.25.06a5.29,5.29,0,0,0,4.74.88A11.17,11.17,0,0,0,47.31,11c-.26-.4-.12-1.06-.17-1.59.52.2,1.3.24,1.52.62.89,1.56,1.62,3.21,2.39,4.8a4.69,4.69,0,0,0,.75-6.05C50,5.56,45.71,3.65,41.6,4.25c-.84.12-1.68.32-2.42.47.92,1.61,1.87,3.14,2.66,4.75.19.39-.16,1-.26,1.57-.45-.32-1.11-.55-1.29-1A9.25,9.25,0,0,0,36.72,5.5c-.88-.56-.89-1.25.12-1.72,5.35-2.5,12.59-1.52,16,3.39a6.81,6.81,0,0,1-.9,9.36A2.18,2.18,0,0,0,51.37,18c0,1.3.2,2.59.32,4,1-.73,1.74-1.35,1.78-2.7A6,6,0,0,1,61,13.78a12.41,12.41,0,0,1,8,5.7c.77,1.2.45,1.55-.86,2a34.46,34.46,0,0,0-4.92,2.22c-1.86,1-3.75,2-5.86,1.2a22.92,22.92,0,0,1-3.67-2.21,6.45,6.45,0,0,0-2,5c.13,2.82-.06,5.67-.21,8.5,0,.43-.52.84-.79,1.26-.3-.45-.87-.91-.87-1.36,0-4.18.16-8.36.17-12.54C50,21.72,49.74,19.91,49.64,18.31Zm17.28,1.3a10.25,10.25,0,0,0-6.56-4.17c-2.72-.45-4.63,1-5,3.36,1.57-.28,3.19-.61,4.82-.82.31,0,.69.46,1,.7a3.89,3.89,0,0,1-.87.93c-.31.17-.77,0-1.13.12-1.29.37-2.57.79-3.9,1.21,1.32,2.51,3.25,3.1,5.76,1.86C63.05,21.84,64.93,20.71,66.92,19.61Z"/><path class="cls-1" d="M27.76,25.19c0-3.55,0-7.1,0-10.65,0-1.24.4-1.73,1.66-1.7,2.3.06,4.6,0,6.9,0,1.09,0,1.55.41,1.55,1.53q0,10.8,0,21.59c0,1.13-.45,1.56-1.53,1.55q-3.52,0-7,0c-1.08,0-1.55-.39-1.53-1.53C27.79,32.39,27.76,28.79,27.76,25.19ZM36,35.69v-21H29.56v21Z"/><path class="cls-1" d="M26.75,39.53H50.83a4.26,4.26,0,0,1,1.29,0,4.28,4.28,0,0,1,1,.78,5.21,5.21,0,0,1-1,.87,2.36,2.36,0,0,1-1,0H2.29c-.14,0-.31.05-.43,0C1.34,41,.43,40.75.38,40.4c-.15-1,.79-.86,1.42-.86,2.36,0,4.71,0,7.07,0Z"/><path class="cls-1" d="M24.09,28.81c0,2.36,0,4.72,0,7.07,0,1.16-.36,1.67-1.57,1.65q-3.45-.08-6.92,0c-1.21,0-1.58-.51-1.57-1.65q0-7.14,0-14.28c0-1.14.35-1.65,1.58-1.61q3.47.12,6.92,0c1.25,0,1.58.47,1.56,1.61C24.05,24,24.09,26.41,24.09,28.81Zm-1.84,6.88V21.85H15.89V35.69Z"/><path class="cls-1" d="M30.19,1.94c-1.46-.12-2.47-.12-3.45-.3-.36-.07-.65-.54-1-.82.37-.29.75-.82,1.12-.82a40.16,40.16,0,0,1,5,.26C32.34.32,33,1,33,1.35a35.23,35.23,0,0,1-.23,5c0,.43-.59.81-.91,1.22a4.17,4.17,0,0,1-.74-1.32,22.77,22.77,0,0,1,0-2.89c-1.55,1.41-3,2.78-4.5,4.06C21.46,11.88,15.77,15.39,9,16.65a56.61,56.61,0,0,1-7.72.64c-.4,0-.84-.63-1.26-1,.45-.23.91-.69,1.35-.68,8.85.24,16.36-3.1,23.06-8.6C26.29,5.49,28.07,3.82,30.19,1.94Z"/><path class="cls-1" d="M10.44,31.26c0,1.58,0,3.17,0,4.75,0,1-.37,1.51-1.41,1.51-2.44,0-4.89,0-7.33,0-.94,0-1.38-.4-1.37-1.39q0-4.89,0-9.78c0-1,.47-1.38,1.4-1.37q3.68,0,7.33,0c1,0,1.39.43,1.37,1.41C10.42,28,10.44,29.63,10.44,31.26ZM8.61,35.69v-8.9H2.2v8.9Z"/></g></g></svg>