<svg xmlns="http://www.w3.org/2000/svg" viewBox="0 0 56.5 56.57"><defs><style>.cls-1{fill:#276c38;}</style></defs><g id="Layer_2" data-name="Layer 2"><g id="Layer_1-2" data-name="Layer 1"><path class="cls-1" d="M40.06,49c-.78,2-1.53,2.47-3.77,2.52a3.15,3.15,0,0,1-3.74,2.43c-.49,1.32-1.27,2.48-2.72,2.37a16.4,16.4,0,0,1-3.64-1.17c-.12.11-.45.44-.81.74a2.61,2.61,0,0,1-4.21-1c-.15-.33-.56-.53-.85-.79,0,0-.07,0-.11,0-1.11-.33-1.33-1.53-2.05-2.12s-1.87-.73-2.31-1.82a1.33,1.33,0,0,0-.67-.71c-2-.78-2.55-1.94-1.75-4.1l-4.9-2.77c-.11.08-.2.11-.23.17-1,2.43-.94,2-3.19,1.1C3.69,43.25,2.29,42.6.86,42c-.82-.33-1-.76-.71-1.62q3-7.63,5.85-15.32c.35-.92.84-1.15,1.77-.79,1.84.71,3.72,1.36,5.59,2,.88.3,1.21.81.73,1.66s-.19,1.17.54,1.44a.21.21,0,0,1,.1.06,4.89,4.89,0,0,0,5.45.85c1.87-.76,2.9-.35,5.38,1.21,1-.56,2-1.43,3-1.59a17.42,17.42,0,0,1,4.55.18c1.38.16,2.73.6,4.11.76a4.84,4.84,0,0,0,2.19-.32c1.12-.41,2.18-1,3.23-1.51,0-.15.06-.23,0-.29-1-2.43-.36-2.1,1.45-2.78,1.58-.6,3.19-1.11,4.77-1.71.8-.32,1.23-.1,1.53.68q3,7.82,6,15.62c.3.79,0,1.15-.71,1.44-1.79.75-3.59,1.5-5.35,2.32-.92.42-1.47.22-1.77-.73a4.68,4.68,0,0,0-.3-.61c-1.5.73-3,1.42-4.43,2.16-.16.08-.26.42-.27.64C43.39,48.07,42.43,49,40.06,49ZM27.53,38.26c-1.33.8-2.58,1.67-3.91,2.35a3.57,3.57,0,0,1-4.5-1.2c-.81-1.39-.39-2.62,1.32-3.9l3.74-2.8a3.26,3.26,0,0,0-2.94-.94c-1,.21-2,.62-3.08.79a3.33,3.33,0,0,1-1.85-.23c-1.08-.52-2.09-1.2-3.19-1.86L9,40.93l5.67,3.19.5-.45c1.92-1.86,3.56-1.59,4.77.76a1.11,1.11,0,0,0,.64.45c1.09.31,1.56,1.14,2.14,2s1.55,1.16,2.34,1.75c.12.09.1.36.2.5a1.35,1.35,0,0,0,.45.44c2.32,1.07,2.59,1.58,2,4.08.37.27.74.58,1.14.83a1.21,1.21,0,0,0,1.68-.29,1.15,1.15,0,0,0,0-1.68c-.15-.17-.41-.29-.46-.47a10.16,10.16,0,0,1-.16-1.25,4.41,4.41,0,0,1,1.27.09,3.93,3.93,0,0,1,.93.77c.92.81,1.6.87,2.18.13s.23-1.43-.45-2.06c-.28-.26-.26-.85-.38-1.29a4.16,4.16,0,0,1,1.37,0,7.61,7.61,0,0,1,1.35.94A1.28,1.28,0,0,0,38,49.31c.62-.72.32-1.36-.29-1.92a5.74,5.74,0,0,1-1.08-.93,2.89,2.89,0,0,1-.25-1.14c.42,0,.95-.27,1.24-.1a16.89,16.89,0,0,1,1.88,1.52c.85.71,1.61.75,2.11.07.61-.84.18-1.45-.51-2-1.67-1.21-3.33-2.43-5-3.59a1.66,1.66,0,0,0-1.18-.21C31.48,41.85,29.65,41.19,27.53,38.26ZM43.4,30.54c-1.37.65-2.6,1.3-3.89,1.82a3.87,3.87,0,0,1-1.89.28c-2.1-.33-4.18-.85-6.28-1.14a4.62,4.62,0,0,0-2.86.25c-2.64,1.73-5.15,3.67-7.66,5.58-.66.5-.49,1.3.26,1.7a2.14,2.14,0,0,0,2.29-.16L27,36.59c1.1-.68,1.39-.6,1.9.56a3.81,3.81,0,0,0,3.44,2.53,6,6,0,0,0,2.26-.34,2.19,2.19,0,0,1,2.32.41c1.63,1.25,3.31,2.44,5,3.61a1.45,1.45,0,0,0,1.15.24c1.54-.67,3-1.44,4.59-2.21ZM54.63,40.62,49,26l-1.33.52c.09.28.14.46.2.63.78,2.21,1.59,4.41,2.29,6.65.11.35-.24.85-.39,1.28-.38-.24-.88-.41-1.11-.75a6.59,6.59,0,0,1-.57-1.54l-2-5.72-2,.72L50,42.65Zm-48.12,2,5.89-14.9-2-.69c-.79,2.27-1.51,4.42-2.3,6.55-.24.65-.28,1.79-1.39,1.39s-.4-1.24-.18-1.89c.75-2.21,1.53-4.4,2.32-6.66L7.45,26c-1,2.5-1.89,4.89-2.81,7.28L1.86,40.64ZM18.41,45c-.2-.25-.35-.62-.6-.7a1.3,1.3,0,0,0-1,.12A10.28,10.28,0,0,0,15,46.19c-.21.28,0,.84,0,1.27.46,0,1,.18,1.35,0a11.36,11.36,0,0,0,1.72-1.68A2.84,2.84,0,0,0,18.41,45Zm5.37,4.73c-.22-.28-.37-.65-.62-.73a1.19,1.19,0,0,0-1,.11,9.94,9.94,0,0,0-1.78,1.77c-.21.31,0,.89-.06,1.35.46,0,1,.12,1.35-.1a9.91,9.91,0,0,0,1.65-1.59A4.27,4.27,0,0,0,23.78,49.72Zm-2.73-2.31c-.17-.24-.31-.62-.55-.71a1.24,1.24,0,0,0-1,.07,10.29,10.29,0,0,0-1.86,1.87,1.26,1.26,0,0,0,.09,1.22,1.24,1.24,0,0,0,1.21,0,13.75,13.75,0,0,0,1.81-1.77A2.91,2.91,0,0,0,21.05,47.41ZM26.4,52.2c-.23-.3-.39-.69-.66-.8a1.16,1.16,0,0,0-1,.15A10.33,10.33,0,0,0,23,53.34a1.24,1.24,0,0,0,0,1.2,1.28,1.28,0,0,0,1.23.06A10.83,10.83,0,0,0,25.91,53,4.1,4.1,0,0,0,26.4,52.2Z"/><path class="cls-1" d="M28.15,26a13,13,0,1,1,.51-26A13.07,13.07,0,0,1,41.25,13.18,13,13,0,0,1,28.15,26ZM39.53,13A11.29,11.29,0,1,0,28.29,24.31,11.25,11.25,0,0,0,39.53,13Z"/><path class="cls-1" d="M8.47,12.16a14.52,14.52,0,0,1,2.19,0c.32.06.58.5.87.76-.28.28-.54.79-.83.81a42.22,42.22,0,0,1-4.5,0c-.31,0-.59-.5-.89-.77.33-.28.62-.73,1-.8A13.32,13.32,0,0,1,8.47,12.16Z"/><path class="cls-1" d="M48,12.16a12.29,12.29,0,0,1,2.19,0c.35.06.63.52,1,.81-.3.26-.59.74-.91.75a39.56,39.56,0,0,1-4.49,0c-.29,0-.55-.53-.82-.82.3-.26.57-.68.89-.74A14.54,14.54,0,0,1,48,12.16Z"/><path class="cls-1" d="M13.47,8.63c-.51.2-1,.59-1.28.46a37.24,37.24,0,0,1-3.7-2.17A1,1,0,0,1,8.34,6c.2-.24.76-.48,1-.36,1.24.64,2.43,1.38,3.61,2.12C13.11,7.86,13.19,8.16,13.47,8.63Z"/><path class="cls-1" d="M48.33,19.6c-.2.71-.66,1-1.26.7a39.7,39.7,0,0,1-3.5-2.07,1.14,1.14,0,0,1-.2-1.05,1,1,0,0,1,.89-.33c1.29.68,2.54,1.44,3.79,2.21C48.2,19.16,48.25,19.43,48.33,19.6Z"/><path class="cls-1" d="M44.07,9.38c-.33-.3-.68-.46-.76-.72a1,1,0,0,1,.21-.87C44.72,7,46,6.28,47.2,5.6a.93.93,0,0,1,.86.25c.16.18.22.77.1.85C46.84,7.62,45.48,8.47,44.07,9.38Z"/><path class="cls-1" d="M9.09,20.55c-.31-.24-.7-.38-.77-.61A1,1,0,0,1,8.53,19a39.3,39.3,0,0,1,3.59-2.12,1,1,0,0,1,1,.23c.16.21.16.86,0,1C11.79,18.94,10.47,19.71,9.09,20.55Z"/><path class="cls-1" d="M28.48,22.63a9.71,9.71,0,0,1-9.93-9.33,9.69,9.69,0,1,1,19.38-.59A9.69,9.69,0,0,1,28.48,22.63ZM36.22,13a8,8,0,1,0-7.95,8A7.93,7.93,0,0,0,36.22,13Z"/><path class="cls-1" d="M27,14.8l4.69-5c.41-.44.86-1,1.48-.43s.19,1.1-.26,1.58c-1.66,1.77-3.33,3.54-5,5.33-.62.68-1.18.8-1.84.07-.88-1-1.84-1.91-2.67-2.94-.24-.3-.13-.88-.17-1.33.45.07,1,0,1.32.23C25.43,13,26.16,13.91,27,14.8Z"/></g></g></svg>