<svg xmlns="http://www.w3.org/2000/svg" viewBox="0 0 55.31 59.4"><defs><style>.cls-1{fill:#255b34;}</style></defs><g id="Layer_2" data-name="Layer 2"><g id="Layer_1-2" data-name="Layer 1"><path class="cls-1" d="M33.37,54.07c-.93,4-2.42,5.33-5.71,5.33S22.86,58,22,54.15c-1.7-.47-1.7-.47-1.7-2.28s-.34-3.64.08-5.32c.68-2.72-.95-3.78-2.74-5A17.92,17.92,0,0,1,24.7,9.05c10.94-1.9,21.56,7.64,20.82,18.71A17.71,17.71,0,0,1,37.12,42a8.73,8.73,0,0,0-1.9,1.74,1.54,1.54,0,0,0-.28,2c.3.49.1,1.31.11,2v4.39C35.05,53.79,35,53.79,33.37,54.07Zm-.77-9c.52-2.31,2-3.74,3.91-5a15.39,15.39,0,0,0,7.1-12.35C44.28,17.7,34.74,9.09,24.9,11c-6.75,1.3-11.23,5.42-12.79,12.12S12.68,35.3,18,39.49c2,1.57,4.16,2.87,4.67,5.58ZM33.06,52V47.05H22.23V52Zm-1.82,2.1H24c.11,2.42,1.4,3.49,3.95,3.4A3.07,3.07,0,0,0,31.24,54.09Z"/><path class="cls-1" d="M4.52,13.09c1.38.87,2.69,1.65,3.93,2.52.17.12.13.8,0,1a1.09,1.09,0,0,1-1,.29,34,34,0,0,1-3.47-2,1.13,1.13,0,0,1-.27-1C3.74,13.62,4.16,13.42,4.52,13.09Z"/><path class="cls-1" d="M47.64,17.23c-.37-.31-.77-.49-.85-.76s0-.89.21-1a34.25,34.25,0,0,1,3.57-2.08c.23-.12.78.1,1,.34s.2.84,0,.94C50.35,15.54,49,16.36,47.64,17.23Z"/><path class="cls-1" d="M8.66,39.29A2.9,2.9,0,0,1,8,40a22.48,22.48,0,0,1-3,1.68c-.36.15-.92-.18-1.39-.29.14-.43.16-1,.46-1.27a26.4,26.4,0,0,1,3.05-1.78A1,1,0,0,1,8.66,39.29Z"/><path class="cls-1" d="M52,41.22c-.49.24-1.08.75-1.37.62a25.43,25.43,0,0,1-3.59-2,.91.91,0,0,1,.87-1.54c1.23.61,2.41,1.33,3.58,2C51.64,40.43,51.7,40.72,52,41.22Z"/><path class="cls-1" d="M2.79,28.51a9,9,0,0,1-1.87,0C.55,28.39,0,28,0,27.67a1.22,1.22,0,0,1,.78-1,25.31,25.31,0,0,1,4,0c.29,0,.69.62.73,1s-.5.69-.83.76a9,9,0,0,1-1.88,0Z"/><path class="cls-1" d="M52.51,28.52a7.36,7.36,0,0,1-1.76,0c-.38-.09-.9-.49-.93-.8s.44-.94.73-1a24.16,24.16,0,0,1,4,0,1.24,1.24,0,0,1,.77,1c0,.29-.56.72-.93.8A9,9,0,0,1,52.51,28.52Z"/><path class="cls-1" d="M28.6,2.67a6.94,6.94,0,0,1,0,1.77c-.11.39-.57.69-.88,1-.32-.32-.89-.62-.92-1a19.56,19.56,0,0,1,0-3.67c0-.32.63-.89.85-.84a1.55,1.55,0,0,1,.95.91A6.44,6.44,0,0,1,28.6,2.67Z"/><path class="cls-1" d="M17.23,7.61c-.3.38-.48.82-.72.85a1.36,1.36,0,0,1-1.13-.31,25.37,25.37,0,0,1-1.89-3.28,1.26,1.26,0,0,1,.24-1.14c.17-.19.93-.22,1,0C15.63,4.93,16.4,6.25,17.23,7.61Z"/><path class="cls-1" d="M39.25,8.57c-.85-.06-1.2-.59-.9-1.21a28.82,28.82,0,0,1,2.07-3.57c.13-.21.75-.26,1-.14s.52.66.43.83c-.67,1.33-1.42,2.62-2.17,3.9C39.66,8.51,39.38,8.52,39.25,8.57Z"/><path class="cls-1" d="M27.21,30.21c2.22-5.65,7.64-6.61,11.89-6.37.73.05,1.2.44,1.13,1.22a34.19,34.19,0,0,1-.57,5.39c-1,4.09-4.2,6.59-8.55,7l-2.76.27c0,1.15,0,2.32,0,3.49a1.9,1.9,0,0,1-.13,1c-.21.3-.75.67-1,.58a1.42,1.42,0,0,1-.76-1c-.08-1.34,0-2.68,0-4.09-1-.13-1.95-.19-2.87-.37-4.45-.89-6.86-3.89-7.06-8.78-.12-2.66.06-2.89,2.72-2.75C22.49,26,25.36,27,27.21,30.21Zm11.06-4.43c-6.27-.6-11.22,4.52-9.72,9.95C34.52,35.77,38.58,33.17,38.27,25.78ZM18.52,27.87c-.29,5.27,2.77,8.09,7.76,7.76A6.72,6.72,0,0,0,18.52,27.87Z"/><path class="cls-1" d="M35.4,16.81a3.33,3.33,0,0,1,.87.5Q37.75,19,39.16,20.7c.41.52.47,1.15-.18,1.52s-1,0-1.46-.54c-.8-1.06-1.75-2-2.57-3.05a1.71,1.71,0,0,1-.3-1.14C34.69,17.24,35.12,17.05,35.4,16.81Z"/><path class="cls-1" d="M31.45,14.29l2.35,1.94c-.35.3-.68.82-1,.85-1,.1-2.39-.82-2.25-1.44C30.58,15.24,31,14.91,31.45,14.29Z"/></g></g></svg>