<svg xmlns="http://www.w3.org/2000/svg" viewBox="0 0 47.53 47.21"><defs><style>.cls-1{fill:#fff;}</style></defs><g id="Layer_2" data-name="Layer 2"><g id="Layer_1-2" data-name="Layer 1"><path class="cls-1" d="M33,24.34l-1.15,8.91c1.79.62,3.63,1.27,5.49,1.88A.76.76,0,0,0,38,34.9c.58-.79,1.11-1.62,1.64-2.45.27-.42.49-1,1.1-.66s.29.85,0,1.28a19,19,0,0,1-13.54,9.75A19.56,19.56,0,1,1,43,20.62a19.31,19.31,0,0,1-.38,7.79c-.11.45-.16,1.09-.88.92s-.46-.78-.37-1.27c.21-1.2.42-2.41.64-3.72ZM14.4,22.91c.07-1.1.09-2.18.24-3.24,0-.32.47-.58.72-.86.18.3.5.61.51.91,0,1-.09,2.08-.15,3.18H31.56l-.16-2.19a6.15,6.15,0,0,1-7.49-6l-7.06-.51a20.79,20.79,0,0,1-.5,2.31c-.11.32-.51.54-.78.81-.16-.34-.46-.69-.44-1A21.45,21.45,0,0,1,15.56,14L9.5,12a18.24,18.24,0,0,0-4.15,10.9Zm1.46,3.6a6.1,6.1,0,0,1,5.2,1.26,6.24,6.24,0,0,1,2.25,4.71l7.27.53,1.11-8.68h-16ZM35.73,12.78A6.14,6.14,0,0,1,33.05,20a.86.86,0,0,0-.32.65c0,.73.09,1.46.14,2.23h9a4.09,4.09,0,0,0,0-.59,17.9,17.9,0,0,0-3-8.78C37.42,11.43,38.14,11.77,35.73,12.78ZM11.4,34.46a.59.59,0,0,0,0-.17,1.11,1.11,0,0,0,0-.19,6,6,0,0,1,2.77-6.91c.16-.1.36-.31.36-.46,0-.82-.1-1.63-.16-2.42H5.46c0,.12-.09.17-.09.23a2.28,2.28,0,0,0,0,.37,18.57,18.57,0,0,0,3.11,8.93c1.06,1.57,1.07,1.57,2.79.74C11.32,34.56,11.36,34.5,11.4,34.46Zm7.47,3.82a24.71,24.71,0,0,0,1.87,2.26,3.77,3.77,0,0,0,5.78,0A14.77,14.77,0,0,0,30,34.24c-2.23-.13-4.33-.26-6.44-.36a.73.73,0,0,0-.57.31A6.44,6.44,0,0,1,18.87,38.28ZM17.26,12.94c2,.14,3.91.24,5.8.41a1.21,1.21,0,0,0,1.41-.9A6.62,6.62,0,0,1,26,10.31a15,15,0,0,1,2.34-1.52,25.33,25.33,0,0,0-2.11-2.4,3.58,3.58,0,0,0-5.09-.09C19.1,8,18.12,10.33,17.26,12.94ZM21,35.22a4.59,4.59,0,0,0-.65-6.37,4.72,4.72,0,0,0-6.5.25,4.54,4.54,0,0,0-.35,6.06L15,33.9c-1.06-1.63-1-3,.08-4.1a2.82,2.82,0,0,1,3.62-.4A4.58,4.58,0,0,1,20,31.05c.49,1.06-.09,2-.6,2.87Zm6.83-18.94c-1-1.62-1-3,.08-4.11a2.78,2.78,0,0,1,3.69-.34,4.16,4.16,0,0,1,1.16,1.6,3,3,0,0,1-.61,2.85l1.61,1.33a4.63,4.63,0,0,0-.6-6.37,4.77,4.77,0,0,0-6.65.36c-1.56,1.68-1.68,4.48-.24,5.91ZM28,41.38a18,18,0,0,0,8.9-5.17l-5.3-1.6ZM19.3,5.85A17.91,17.91,0,0,0,10.42,11l5.27,1.62ZM36.76,10.9a17.9,17.9,0,0,0-9.07-5.11c.67,1,1.21,1.82,1.82,2.62a1.3,1.3,0,0,0,.84.37A5.75,5.75,0,0,1,34.64,11c.37.47.68.62,1.21.31A7.64,7.64,0,0,1,36.76,10.9ZM19.59,41.43c-.68-1-1.24-1.83-1.83-2.65a.77.77,0,0,0-.5-.32,6.22,6.22,0,0,1-5.18-2.78l-1.57.62A18.09,18.09,0,0,0,19.59,41.43ZM32.71,18.65a3.3,3.3,0,0,0-5.47-.1A4.4,4.4,0,0,0,32.71,18.65ZM14.48,36.23a4.29,4.29,0,0,0,5.42,0C18.7,34.23,15.37,34.44,14.48,36.23Zm17.1-22a1.63,1.63,0,0,0-1.67-1.61,1.7,1.7,0,0,0-1.6,1.61A1.65,1.65,0,0,0,30,15.84,1.62,1.62,0,0,0,31.58,14.2ZM17.18,33.46a1.61,1.61,0,1,0,0-3.22,1.66,1.66,0,0,0-1.61,1.58A1.64,1.64,0,0,0,17.18,33.46Z"/><path class="cls-1" d="M47.27,23.67a23.64,23.64,0,0,1-20,23.25,23.33,23.33,0,0,1-13.91-2.07,1.19,1.19,0,0,0-1.33,0,2.32,2.32,0,0,1-2.93-.49,2.44,2.44,0,0,1,2.34-4,2.27,2.27,0,0,1,1.85,2.32c0,.68.29.89.81,1.13A22.32,22.32,0,0,0,45.67,27.1a21.9,21.9,0,0,0-3.09-15.3c-.13-.21-.35-.4-.38-.62a6.09,6.09,0,0,1,0-1.13c.35.13.89.17,1,.42a38.76,38.76,0,0,1,2.86,6,61.41,61.41,0,0,1,1.45,7.19ZM10.88,43.86c.65-.09,1.1-.39,1.13-1.1a1.13,1.13,0,1,0-2.25,0A1.12,1.12,0,0,0,10.88,43.86Z"/><path class="cls-1" d="M1.27,22.86A23.29,23.29,0,0,0,4.9,35.74a1.9,1.9,0,0,1,.39.72.81.81,0,0,1-.27.69.92.92,0,0,1-.73-.09c-.17-.08-.27-.32-.39-.5C-5.31,22.89,2.66,3.65,18.83.48A24,24,0,0,1,33.77,2.25a1.39,1.39,0,0,0,1,0,2.55,2.55,0,0,1,3,.36,2.45,2.45,0,0,1,.43,2.89,2.43,2.43,0,0,1-4.57-1.14c0-.59-.25-.79-.7-1A22.36,22.36,0,0,0,1.83,18.88C1.51,20.44,1.38,22,1.27,22.86Zm36-18.52a1.16,1.16,0,0,0-1.07-1.18,1.19,1.19,0,0,0-1.24,1.11A1.21,1.21,0,0,0,36.1,5.46,1.18,1.18,0,0,0,37.24,4.34Z"/></g></g></svg>