<svg xmlns="http://www.w3.org/2000/svg" viewBox="0 0 51.18 56.69"><defs><style>.cls-1{fill:#255b34;}</style></defs><g id="Layer_2" data-name="Layer 2"><g id="Layer_1-2" data-name="Layer 1"><path class="cls-1" d="M36.26,22.31a6.86,6.86,0,0,1-1.26.55c-1.66.28-2,1.25-1.9,2.82.15,2.17.07,4.37,0,6.56a1.23,1.23,0,0,0,1,1.45A13.7,13.7,0,0,1,43.37,46c0,1.11-.38,1.39-1.4,1.38-2.06,0-2.06,0-2.6,2a10.2,10.2,0,0,1-8.59,7.3,10,10,0,0,1-10-5.4,1.55,1.55,0,0,0-1.64-1c-5.26,0-10.52,0-15.78,0C1,50.23,0,49.22,0,46.89V10.16C0,7.79,1.07,6.71,3.44,6.71c5,0,10.05,0,15.08,0A1.43,1.43,0,0,0,20,5.93a11.91,11.91,0,0,1,22.13,4.61A11.09,11.09,0,0,1,41,17a1,1,0,0,0,.25,1.39c.61.52,1.14,1.13,1.73,1.69.18.17.47.41.64.37,1-.27,1.57.39,2.17,1a49.46,49.46,0,0,0,3.92,3.88c2.81,2.27,1.16,6.38-1.94,7.35a3.4,3.4,0,0,1-3.7-.87c-1.56-1.58-3.17-3.12-4.69-4.75a4.82,4.82,0,0,1-.64-1.59,2,2,0,0,0-.24-.68C37.77,23.94,37,23.1,36.26,22.31ZM19.53,17.5c-.18-1.45-.85-2-2.23-1.85a11.1,11.1,0,0,1-2.64,0c-.39,0-.73-.43-1.09-.66.37-.23.73-.63,1.11-.66,1.25-.09,2.5,0,3.6,0l.39-6.15-.78-.05H3.5c-1.63,0-2.12.49-2.12,2.13v36.5c0,1.72.39,2.12,2.08,2.12h16l.68-6.41a9.61,9.61,0,0,1-1.68,0c-.29,0-.52-.41-.78-.63.25-.23.47-.62.76-.67.55-.11,1.15,0,1.72-.06s1.12-.06,1.35-.35A10.59,10.59,0,0,1,29,36.56c0-.29,0-.52,0-.75,0-2.67,0-2.68,2.64-2.92V23.81H28.09v8.07c0,3.38,0,3.38-3.33,3.33-1.35,0-1.71-.36-1.71-1.69,0-2.92-.11-5.85,0-8.76.1-2.09-.1-3.94-2-5.17a3.53,3.53,0,0,0-1.54-.68c-1.65-.09-3.3,0-4.95-.06-.35,0-.68-.4-1-.62.35-.24.69-.68,1-.7C16.23,17.46,17.84,17.5,19.53,17.5ZM29,38.07a8.66,8.66,0,0,0-8,9.21,8.74,8.74,0,0,0,9.81,8c4.11-.61,7.88-4.68,7.23-7.91-2.54,0-5.1,0-7.67,0-1,0-1.44-.29-1.41-1.38C29.06,43.37,29,40.76,29,38.07ZM19.73,12A10.53,10.53,0,1,0,30.21,1.38,10.54,10.54,0,0,0,19.73,12Zm10.74,34H40.84c.34,0,.67,0,1-.06C42,40.05,36.17,34.3,30.47,34.48ZM40.23,26l4.67,4.64a2.58,2.58,0,0,0,3.94-.22A2.6,2.6,0,0,0,49,26.6c-.94-1-1.9-1.91-2.85-2.85-.64-.64-1.29-1.26-1.85-1.81ZM26.7,33.76c0-3.37,0-6.59,0-9.81a.94.94,0,0,0-.38-.71,17.79,17.79,0,0,0-1.87-.8V33.76ZM42.34,21.58,40,19.22l-2.34,2.43L39.84,24Z"/><path class="cls-1" d="M8.85,16c1.87.52,2.57,1.15,2.64,2.34s-.79,2.09-2.68,2.77a2,2,0,0,1-.07.64,8.32,8.32,0,0,1-.64.95c-.24-.32-.48-.64-.73-.95a8.22,8.22,0,0,0-.77-.88c-.58-.53-1.22-1-1.75-1.55a.89.89,0,0,1,.2-.85,1.06,1.06,0,0,1,.89.15,9.83,9.83,0,0,1,1.12,1l.31-.14a16.67,16.67,0,0,0,0-1.87.85.85,0,0,0-.52-.59c-1.25-.35-2.2-.93-2.2-2.4,0-1.15.77-1.93,2.35-2.47.1,0,.21-.08.11-.26l1-1.42,1,1.37-.14,0A15.77,15.77,0,0,1,11,13.43a1.34,1.34,0,0,1,.11,1.28c-.48.56-.81,0-1.15-.38a8,8,0,0,0-1.1-.91ZM7.31,13.67,7,13.48a4.42,4.42,0,0,0-.92,1.39c0,.22.66.6,1.22,1.07Zm1.51,5.84.29.19c.33-.44.85-.85.9-1.31,0-.29-.64-.66-1.19-1.17Z"/><path class="cls-1" d="M17.06,28.48c0-1.69,0-3.37,0-5.06,0-.9.39-1.36,1.31-1.35h2.42a1.15,1.15,0,0,1,1.29,1.28q0,5.24,0,10.47a1.15,1.15,0,0,1-1.33,1.24c-.77,0-1.53,0-2.3,0-1,0-1.39-.44-1.38-1.41C17.08,31.94,17.06,30.21,17.06,28.48Zm3.58-4.95H18.52v10h2.12Z"/><path class="cls-1" d="M11.06,30.06c0-1.15,0-2.31,0-3.45a1.25,1.25,0,0,1,1.38-1.45c3.78,0,3.67-.24,3.64,3.36,0,1.61,0,3.22,0,4.83,0,1.3-.37,1.64-1.63,1.65-3.63,0-3.4.24-3.37-3.33Zm1.43,3.5h2.18c0-2-.06-3.87,0-5.77.05-1.07-.34-1.39-1.32-1.24-.29.05-.58.06-.89.1Z"/><path class="cls-1" d="M5.06,31.6c0-3.47-.28-3.29,3.29-3.27,1.37,0,1.67.3,1.69,1.69,0,1.11,0,2.22,0,3.32s-.34,1.55-1.59,1.57C4.62,35,5.06,35,5.06,31.6ZM6.5,33.52a8.24,8.24,0,0,0,1.5,0c.24-.05.6-.37.61-.59.06-1,0-2,0-3.11H6.5Z"/><path class="cls-1" d="M10.27,36.82c1.3,0,2.6,0,3.9,0,.32,0,.63.38.94.59-.32.25-.63.72-.95.72q-3.9.11-7.8,0c-.34,0-.67-.45-1-.7.34-.22.66-.6,1-.62C7.67,36.77,9,36.82,10.27,36.82Z"/><path class="cls-1" d="M10.27,42.45c-1.3,0-2.6,0-3.89,0-.35,0-.68-.41-1-.63.33-.24.66-.69,1-.69q3.9-.09,7.8,0c.32,0,.63.47.95.73-.32.2-.62.57-.94.59C12.87,42.49,11.57,42.45,10.27,42.45Z"/><path class="cls-1" d="M19.9,36.82a8.23,8.23,0,0,1,1.49,0c.26,0,.48.36.72.56-.23.25-.44.72-.69.74a21.38,21.38,0,0,1-3.1,0,.9.9,0,0,1-.55-.69c0-.21.38-.55.64-.6A9.22,9.22,0,0,1,19.9,36.82Z"/><path class="cls-1" d="M30.26,19.61A7.6,7.6,0,0,1,22.58,12a7.68,7.68,0,0,1,7.73-7.74A7.77,7.77,0,0,1,38,12,7.68,7.68,0,0,1,30.26,19.61Zm-.06-1.39A6.3,6.3,0,1,0,24,11.91,6.23,6.23,0,0,0,30.2,18.22Z"/></g></g></svg>