<svg xmlns="http://www.w3.org/2000/svg" viewBox="0 0 58.37 54.8"><defs><style>.cls-1{fill:#fff;}</style></defs><g id="Layer_2" data-name="Layer 2"><g id="Layer_1-2" data-name="Layer 1"><path class="cls-1" d="M38.56,39.38,43.2,38l9.28-2.75a4.42,4.42,0,0,1,3.4,8.14c-3.26,1.72-6.53,3.41-9.79,5.11s-6.22,3.26-9.35,4.86a14.17,14.17,0,0,1-8.86,1.21c-4.15-.65-8.31-1.27-12.47-1.9-2.85-.44-5.7-.85-8.54-1.33A1.42,1.42,0,0,1,6,50.7C4,47.4,2.12,44.07.21,40.74a1,1,0,0,1,.43-1.6C5.35,36.42,10,33.63,14.8,31a10.47,10.47,0,0,1,9.53-.41l11,4.7A5.31,5.31,0,0,1,38.56,39.38ZM2.5,40.5c1.67,2.9,3.31,5.76,5,8.6a.79.79,0,0,0,.52.32c2.31.36,4.63.7,6.94,1,4.18.64,8.36,1.22,12.52,1.93a13.53,13.53,0,0,0,8.85-1.15c6.16-3.24,12.33-6.43,18.5-9.66a3.51,3.51,0,0,0,1-.75,2.27,2.27,0,0,0,.11-2.68,2.3,2.3,0,0,0-2.69-.89L38.85,41.49a1,1,0,0,0-.7.65,4.92,4.92,0,0,1-4.77,3.1c-1,0-2-.16-3-.25-1.85-.18-3.71-.36-5.56-.56a1.09,1.09,0,0,1-1.1-1.19c.08-.64.64-1,1.41-.91,2.67.28,5.35.56,8,.82a2.92,2.92,0,0,0,2.18-.71,3,3,0,0,0-.83-5.17q-5.81-2.54-11.65-5a7,7,0,0,0-2.15-.45,9.64,9.64,0,0,0-5.82,1.49C10.81,35.73,6.69,38.08,2.5,40.5Z"/><path class="cls-1" d="M25.13,13.69a6.48,6.48,0,1,1,8.13,0A13.73,13.73,0,0,1,38,16.87,7.27,7.27,0,0,1,40.25,21,4.2,4.2,0,0,1,36,25.91c-4.53.08-9.07.1-13.61,0a4.31,4.31,0,0,1-3.69-6.6A11.76,11.76,0,0,1,24.47,14ZM29.22,23.8h0c2.26,0,4.52,0,6.77,0a2.14,2.14,0,0,0,1.94-3.25,9.36,9.36,0,0,0-8.56-5.39,9.54,9.54,0,0,0-8.8,5.13,2.27,2.27,0,0,0,2.08,3.54C24.84,23.73,27,23.8,29.22,23.8Zm0-19.52a4.34,4.34,0,1,0,4.31,4.36A4.32,4.32,0,0,0,29.2,4.28Z"/><path class="cls-1" d="M9.58,11.47a6.48,6.48,0,1,1,8.56-9.71,6.55,6.55,0,0,1-.37,9.77c.63.3,1.25.56,1.85.88a1.11,1.11,0,0,1,.68,1.22c-.14.74-.87,1-1.63.69a19.93,19.93,0,0,0-3.21-1.17A9.76,9.76,0,0,0,4.91,18.43,2.22,2.22,0,0,0,7,21.65c2.41,0,4.81,0,7.22,0h.65a1,1,0,0,1,0,2.08c-.63,0-1.26,0-1.88,0H7a4.27,4.27,0,0,1-4.18-5.8A9.81,9.81,0,0,1,6.92,13C7.75,12.44,8.67,12,9.58,11.47Zm-.19-5a4.31,4.31,0,1,0,4.34-4.33A4.36,4.36,0,0,0,9.39,6.44Z"/><path class="cls-1" d="M40.64,11.5a6.37,6.37,0,0,1-2.39-5.06,6.3,6.3,0,0,1,1.87-4.58A6.69,6.69,0,0,1,49,1.61a6,6,0,0,1,1.9,3.13,6.46,6.46,0,0,1-.08,3.72,6.93,6.93,0,0,1-1.93,2.92c1.26.85,2.54,1.61,3.7,2.51a9.86,9.86,0,0,1,2.64,3.36,4.33,4.33,0,0,1-3.94,6.49q-3.77,0-7.55,0c-.77,0-1.24-.38-1.26-1s.46-1.06,1.27-1.08h.45c2.3,0,4.61,0,6.91,0S54.34,20,53.28,18A9.79,9.79,0,0,0,40,14.13a2.31,2.31,0,0,1-.89.34.93.93,0,0,1-1-.69.94.94,0,0,1,.4-1.2C39.19,12.19,39.89,11.89,40.64,11.5Zm-.25-5.07a4.31,4.31,0,1,0,4.36-4.32A4.36,4.36,0,0,0,40.39,6.43Z"/></g></g></svg>