<svg xmlns="http://www.w3.org/2000/svg" viewBox="0 0 271.98 70.44"><defs><style>.cls-1{fill:#404041;}.cls-2{fill:#276c38;}</style></defs><g id="Layer_2" data-name="Layer 2"><g id="Layer_1-2" data-name="Layer 1"><path class="cls-1" d="M81.45,54v2H77.91V66.6H75.84V56H72.27V54Z"/><path class="cls-1" d="M88.85,58.73a4.82,4.82,0,1,1-3.37-1.37A4.59,4.59,0,0,1,88.85,58.73Zm-3.37,6.21a2.72,2.72,0,0,0,2-.81,3,3,0,0,0,0-4.07,2.87,2.87,0,0,0-4,0,3,3,0,0,0,0,4.07A2.72,2.72,0,0,0,85.48,64.94Zm0-9.75-.88,1.24H82.78l1.77-2.34h1.89l1.78,2.34H86.38Zm1.93-.47c0-.8.09-1,.5-1.3l.22-.13a.39.39,0,0,0,.23-.36c0-.14-.07-.21-.32-.21a.71.71,0,0,0-.74.52l-1.1-.47a1.85,1.85,0,0,1,1.84-1.22,1.39,1.39,0,0,1,.86,2.59c-.2.09-.3.18-.27.58Z"/><path class="cls-1" d="M100.19,61.07V66.6H98.25V61.27a1.88,1.88,0,0,0-2-2.09c-1.37,0-2.29.85-2.29,2.59V66.6H92v-9h1.94v1.15a3.08,3.08,0,0,1,2.79-1.39C98.8,57.36,100.19,58.77,100.19,61.07Z"/><path class="cls-1" d="M109.44,57.6h1.91v8.59A3.85,3.85,0,0,1,110,69.34a5.06,5.06,0,0,1-3.28,1.1c-2.07,0-3.49-.72-4.26-2.18l1.67-1a2.69,2.69,0,0,0,2.63,1.39,2.38,2.38,0,0,0,2.68-2.48v-1.1a3.61,3.61,0,0,1-3.13,1.56,4.31,4.31,0,0,1-3.22-1.35,4.75,4.75,0,0,1,0-6.57,4.26,4.26,0,0,1,3.22-1.37,3.62,3.62,0,0,1,3.13,1.57Zm-2.86,7.24a2.73,2.73,0,0,0,2-.82,2.86,2.86,0,0,0,0-4,2.76,2.76,0,0,0-2-.81,2.82,2.82,0,0,0-2,.81,2.91,2.91,0,0,0,0,4A2.79,2.79,0,0,0,106.58,64.84Z"/><path class="cls-1" d="M125.25,57.6h1.94V70.2h-1.94V65.32a3.68,3.68,0,0,1-3.16,1.51,4.22,4.22,0,0,1-3.16-1.36,4.94,4.94,0,0,1,0-6.72,4.21,4.21,0,0,1,3.16-1.39,3.67,3.67,0,0,1,3.16,1.53ZM122.4,65a2.76,2.76,0,0,0,2-.81,2.82,2.82,0,0,0,.82-2.07,2.74,2.74,0,0,0-.82-2.05,2.9,2.9,0,0,0-4.06,0,2.77,2.77,0,0,0-.81,2.05,2.85,2.85,0,0,0,.81,2.07A2.76,2.76,0,0,0,122.4,65Z"/><path class="cls-1" d="M135.52,57.6h1.95v9h-1.95V65.45a3.06,3.06,0,0,1-2.79,1.38c-2.07,0-3.46-1.4-3.46-3.7V57.6h1.95v5.33a1.88,1.88,0,0,0,2,2.09c1.36,0,2.28-.85,2.28-2.6Z"/><path class="cls-1" d="M145.8,57.6h2.07l-3.46,9.29c-.86,2.32-2.32,3.44-4.39,3.31V68.38c1.23.07,1.91-.52,2.4-1.76l.09-.18-3.82-8.84h2.12l2.69,6.53Zm-5.4-1.21c0-2.63,1.58-3,3-2,.78.63,1.12.59,1.12-.41h1.6c0,2.63-1.55,3-3,2-.8-.63-1.14-.6-1.14.41Z"/><path class="cls-1" d="M163.84,55.17V56.5h-1.17V66.6h-1.95V65.3a3.63,3.63,0,0,1-3.15,1.53,4.24,4.24,0,0,1-3.17-1.36,5,5,0,0,1,0-6.74,4.21,4.21,0,0,1,3.17-1.37,3.67,3.67,0,0,1,3.15,1.52V56.5h-2.91V55.17h2.91V54h1.95v1.17Zm-6,9.81a2.76,2.76,0,0,0,2-.81,2.85,2.85,0,0,0,.81-2.07,2.77,2.77,0,0,0-.81-2.05,2.91,2.91,0,0,0-4.07,0A2.77,2.77,0,0,0,155,62.1a2.85,2.85,0,0,0,.81,2.07A2.78,2.78,0,0,0,157.88,65Z"/><path class="cls-1" d="M172.19,57.6h1.94v9h-1.94V65.3A3.63,3.63,0,0,1,169,66.83a4.24,4.24,0,0,1-3.17-1.36,5,5,0,0,1,0-6.74A4.21,4.21,0,0,1,169,57.36a3.67,3.67,0,0,1,3.15,1.52ZM169.34,65a2.78,2.78,0,0,0,2-.81,2.85,2.85,0,0,0,.81-2.07,2.77,2.77,0,0,0-.81-2.05,2.91,2.91,0,0,0-4.07,0,2.77,2.77,0,0,0-.81,2.05,2.85,2.85,0,0,0,.81,2.07A2.76,2.76,0,0,0,169.34,65Zm.63-9.71-.88,1.25h-1.83L169,54.18h1.89l1.78,2.34h-1.83Zm3.19-2.73h2.18l-1.78,2.27h-1.73Z"/><path class="cls-1" d="M181.42,59.47h-2.23v4.32c0,1.15.75,1.14,2.23,1.06V66.6c-3,.36-4.18-.45-4.18-2.81V59.47h-1.65V57.6h1.65v-2l1.95-.57V57.6h2.23Z"/><path class="cls-2" d="M88.83,26.35H73V25.06L91.32,1.92h1V23.23h4.27v3.12H92.28V36H88.83Zm0-3.12v-13L78.46,23.23Z"/><path class="cls-2" d="M105.53,36.48a2.47,2.47,0,0,1-2.64-2.54,2.76,2.76,0,0,1,.67-1.88,2.49,2.49,0,0,1,2-.76,2.55,2.55,0,0,1,2,.76,2.74,2.74,0,0,1,.7,1.88,2.51,2.51,0,0,1-.72,1.8A2.64,2.64,0,0,1,105.53,36.48Z"/><path class="cls-2" d="M124.2,36.48a14.41,14.41,0,0,1-5.54-1.1,10.47,10.47,0,0,1-4.49-3.6l2.64-2.36a9.42,9.42,0,0,0,3,2.84,8.4,8.4,0,0,0,4.44,1.1,8.69,8.69,0,0,0,3.24-.58A7.08,7.08,0,0,0,130,31.15a7.65,7.65,0,0,0,1.66-2.49,8.17,8.17,0,0,0,.6-3.17,8,8,0,0,0-.63-3.29,6.26,6.26,0,0,0-1.75-2.35,7.64,7.64,0,0,0-2.66-1.42,11.27,11.27,0,0,0-3.36-.48,12,12,0,0,0-4.32.82h-1.68L119.54,2.4h13.78V5.76H122.38l-.92,9.5c.45-.09.92-.18,1.42-.26a9.17,9.17,0,0,1,1.46-.12,13.94,13.94,0,0,1,4.76.77,10,10,0,0,1,3.57,2.18,9.32,9.32,0,0,1,2.23,3.39,11.61,11.61,0,0,1,.77,4.32,11.3,11.3,0,0,1-.86,4.46,10.33,10.33,0,0,1-2.4,3.46,10.9,10.9,0,0,1-3.63,2.23A12.77,12.77,0,0,1,124.2,36.48Z"/><path class="cls-2" d="M152.57,36.29a8.94,8.94,0,0,1-4.66-1.23,10.07,10.07,0,0,1-3.45-3.45,18,18,0,0,1-2.14-5.38,30.08,30.08,0,0,1-.74-7,28.89,28.89,0,0,1,.84-7.32,17.4,17.4,0,0,1,2.32-5.38,10.73,10.73,0,0,1,3.46-3.31,8.37,8.37,0,0,1,4.22-1.13,8.82,8.82,0,0,1,4.64,1.23,10.34,10.34,0,0,1,3.45,3.45,17,17,0,0,1,2.14,5.38,31.26,31.26,0,0,1,.72,7,28.89,28.89,0,0,1-.84,7.32,17.64,17.64,0,0,1-2.31,5.38,10.26,10.26,0,0,1-3.43,3.31A8.37,8.37,0,0,1,152.57,36.29Zm0-3.36a5.43,5.43,0,0,0,2.76-.77,6.57,6.57,0,0,0,2.3-2.42,14.34,14.34,0,0,0,1.56-4.28,29.29,29.29,0,0,0,.58-6.31,30.08,30.08,0,0,0-.55-6.09,15,15,0,0,0-1.52-4.28,6.64,6.64,0,0,0-2.3-2.49,5.59,5.59,0,0,0-3-.82,5.43,5.43,0,0,0-2.76.77,6.77,6.77,0,0,0-2.32,2.42,14,14,0,0,0-1.59,4.28,30,30,0,0,0-.57,6.31,29.34,29.34,0,0,0,.55,6.12,14.68,14.68,0,0,0,1.53,4.25,7,7,0,0,0,2.33,2.49A5.59,5.59,0,0,0,152.57,32.93Z"/><path class="cls-2" d="M180.7,36.29A8.94,8.94,0,0,1,176,35.06a10.1,10.1,0,0,1-3.46-3.45,17.94,17.94,0,0,1-2.13-5.38,30.06,30.06,0,0,1-.75-7,28.89,28.89,0,0,1,.84-7.32,17.41,17.41,0,0,1,2.33-5.38,10.63,10.63,0,0,1,3.46-3.31,8.37,8.37,0,0,1,4.22-1.13,8.78,8.78,0,0,1,4.63,1.23,10.37,10.37,0,0,1,3.46,3.45,17.19,17.19,0,0,1,2.14,5.38,31.26,31.26,0,0,1,.72,7,28.89,28.89,0,0,1-.84,7.32,17.64,17.64,0,0,1-2.31,5.38,10.26,10.26,0,0,1-3.43,3.31A8.37,8.37,0,0,1,180.7,36.29Zm0-3.36a5.43,5.43,0,0,0,2.76-.77,6.65,6.65,0,0,0,2.3-2.42,14.34,14.34,0,0,0,1.56-4.28,29.94,29.94,0,0,0,.58-6.31,29.32,29.32,0,0,0-.56-6.09,14.7,14.7,0,0,0-1.51-4.28,6.72,6.72,0,0,0-2.3-2.49,5.59,5.59,0,0,0-3-.82,5.43,5.43,0,0,0-2.76.77,6.88,6.88,0,0,0-2.33,2.42,14.05,14.05,0,0,0-1.58,4.28,29.94,29.94,0,0,0-.58,6.31,29.28,29.28,0,0,0,.56,6.12,14.39,14.39,0,0,0,1.53,4.25,6.87,6.87,0,0,0,2.33,2.49A5.59,5.59,0,0,0,180.7,32.93Z"/><path class="cls-2" d="M211,9v8.54h8.55v3.12H211v8.5h-3.12v-8.5h-8.49V17.52h8.49V9Z"/><path class="cls-2" d="M41.86,38.17H12.17c.4-1.88.76-3.7,1.15-5.51C14.14,28.84,15,25,15.78,21.21c.15-.75.44-1,1.17-.93,1.05.06,2.1,0,3.2,0v2c-.29,0-.55.1-.82.11-1.59.06-1.61,0-2,1.67q-1.2,5.51-2.38,11a7.17,7.17,0,0,0-.09.91H39.2L36.3,22.5l-2.43-.11v-2H38Z"/><path class="cls-2" d="M27,26.53c-3.73-4.93-7.32-9.72-8.72-15.71A8.94,8.94,0,1,1,35.74,7.06a11.68,11.68,0,0,1-.39,5.18C33.74,17.58,30.52,22,27,26.53Zm-.12-3.65.46,0c1.61-2.75,3.3-5.46,4.8-8.28a17.87,17.87,0,0,0,1.49-4.25,6.48,6.48,0,0,0-2.77-7.08,7,7,0,0,0-7.67,0,6.65,6.65,0,0,0-2.83,7.08,26.29,26.29,0,0,0,3.79,8.41C25,20.18,26,21.52,26.87,22.88Z"/><path class="cls-2" d="M54,52v2H0V52Z"/><path class="cls-2" d="M0,38.23v-2.1c1.36,0,2.69,0,4,0a1.26,1.26,0,0,0,1-.54c1.57-4.28,3.09-8.58,4.67-13L8,22.35v-2h4.68c-.1.35-.17.68-.29,1-1.89,5.32-3.81,10.64-5.68,16a1.17,1.17,0,0,1-1.36.93C3.57,38.19,1.82,38.23,0,38.23Z"/><path class="cls-2" d="M54,36.13v2.09c-2,0-3.91,0-5.84,0a.87.87,0,0,1-.64-.51q-3.08-8.53-6.1-17.09a.8.8,0,0,1,0-.26h4.49c.53,1.69.37,1.94-1.44,2.22a6.74,6.74,0,0,0,.16.78c1.42,4,2.87,7.94,4.25,11.92a1.11,1.11,0,0,0,1.3.89C51.42,36.09,52.65,36.13,54,36.13Z"/><path class="cls-2" d="M10.14,16.77v-2h6.59v2Z"/><path class="cls-2" d="M37.25,16.75v-2h6.58v2Z"/><path class="cls-2" d="M1.12,44H4.28v2.08c-.9,0-1.83,0-2.75,0-.15,0-.35-.44-.39-.7A8.36,8.36,0,0,1,1.12,44Z"/><path class="cls-2" d="M7.89,44h3.17v2.08c-.91,0-1.84,0-2.75,0-.16,0-.36-.44-.4-.7A8.36,8.36,0,0,1,7.89,44Z"/><path class="cls-2" d="M14.67,44h3.15v2.09c-.9,0-1.77,0-2.63,0-.19,0-.46-.37-.5-.61A8.55,8.55,0,0,1,14.67,44Z"/><path class="cls-2" d="M21.44,44h3.15v2.09c-.9,0-1.77,0-2.63,0-.19,0-.46-.37-.5-.61A8.55,8.55,0,0,1,21.44,44Z"/><path class="cls-2" d="M31.36,46.14H30c-2,0-2,0-1.69-2.08h3.05Z"/><path class="cls-2" d="M35,44h3.15v2.09c-.89,0-1.76,0-2.62,0-.19,0-.46-.37-.51-.6A8.69,8.69,0,0,1,35,44Z"/><path class="cls-2" d="M44.93,44v2.09c-.9,0-1.76,0-2.61,0-.21,0-.49-.41-.55-.67a7,7,0,0,1,0-1.38Z"/><path class="cls-2" d="M48.52,44.05h3.17v2.07c-.9,0-1.8,0-2.68,0-.18,0-.42-.4-.47-.65A9.07,9.07,0,0,1,48.52,44.05Z"/><path class="cls-2" d="M27,12.27A3.34,3.34,0,0,1,23.66,9a3.35,3.35,0,1,1,6.69,0A3.34,3.34,0,0,1,27,12.27Zm1.2-3.64c-.3-.22-.7-.73-1.17-.8-.69-.1-1.17.4-1.17,1.16A1,1,0,0,0,27,10.12C27.73,10.14,28.1,9.69,28.2,8.63Z"/><path class="cls-2" d="M234.17,12.47V18H232.6V12.56a2.08,2.08,0,0,0-2.23-2.3c-1.57,0-2.61,1-2.61,3V18h-1.57V5.4h1.57v4.89a3.17,3.17,0,0,1,2.91-1.53A3.38,3.38,0,0,1,234.17,12.47Z"/><path class="cls-2" d="M237.44,14.22a3.08,3.08,0,0,0,3.26,2.54,2.79,2.79,0,0,0,2.59-1.32l1.33.76a4.4,4.4,0,0,1-4,2,4.8,4.8,0,0,1-3.49-1.33,4.67,4.67,0,0,1-1.33-3.4,4.66,4.66,0,0,1,1.31-3.39,4.56,4.56,0,0,1,3.4-1.35,4.11,4.11,0,0,1,3.23,1.41A4.78,4.78,0,0,1,245,13.52a4.23,4.23,0,0,1-.06.7Zm0-1.37h6a2.85,2.85,0,0,0-2.9-2.61A3,3,0,0,0,237.44,12.85Z"/><path class="cls-2" d="M247.68,16.88a4.61,4.61,0,0,1-1.35-3.38,4.65,4.65,0,0,1,4.74-4.74,4.33,4.33,0,0,1,4,2.36l-1.32.76a2.87,2.87,0,0,0-2.66-1.59,3.09,3.09,0,0,0-2.27.92,3.13,3.13,0,0,0-.9,2.29,3.13,3.13,0,0,0,.9,2.27,3.09,3.09,0,0,0,2.27.92,3,3,0,0,0,2.71-1.57l1.34.77a4.56,4.56,0,0,1-4.05,2.34A4.61,4.61,0,0,1,247.68,16.88Z"/><path class="cls-2" d="M261.56,10.51h-2.39v4.88c0,1.39.79,1.28,2.39,1.21V18c-2.74.36-4-.38-4-2.61V10.51h-1.78V9h1.78V6.94l1.57-.46V9h2.39Z"/><path class="cls-2" d="M270.42,9H272v9h-1.56V16.45A3.81,3.81,0,0,1,267,18.23a4.31,4.31,0,0,1-3.22-1.36,4.73,4.73,0,0,1-1.33-3.37,4.67,4.67,0,0,1,1.33-3.35A4.31,4.31,0,0,1,267,8.76a3.82,3.82,0,0,1,3.41,1.79Zm-.92,6.8a3.16,3.16,0,0,0,.92-2.3,3.11,3.11,0,0,0-.92-2.29,3.26,3.26,0,0,0-4.56,0A3.11,3.11,0,0,0,264,13.5a3.16,3.16,0,0,0,.92,2.3,3.29,3.29,0,0,0,4.56,0Z"/></g></g></svg>