<svg xmlns="http://www.w3.org/2000/svg" viewBox="0 0 273.17 75.99"><defs><style>.cls-1,.cls-7{font-size:18px;}.cls-1{fill:#414042;font-family:SVN-GilroySemiBold, SVN-Gilroy;font-weight:600;}.cls-2{letter-spacing:-0.09em;}.cls-3{font-size:48px;font-family:TildaSans-Regular, Tilda Sans;}.cls-3,.cls-6,.cls-7{fill:#276c38;}.cls-4{letter-spacing:-0.02em;}.cls-5{letter-spacing:0em;}.cls-7{font-family:SVN-GilroyMedium, SVN-Gilroy;font-weight:500;}.cls-8{letter-spacing:0em;}.cls-9{letter-spacing:-0.03em;}.cls-10{letter-spacing:0em;}</style></defs><g id="Layer_2" data-name="Layer 2"><g id="Layer_1-2" data-name="Layer 1"><text class="cls-1" transform="translate(72 71.4)"><tspan class="cls-2">T</tspan><tspan x="8.1" y="0">ổng quỹ đất</tspan></text><text class="cls-3" transform="translate(71.93 40.8)">4.<tspan class="cls-4" x="39.22" y="0">5</tspan><tspan class="cls-5" x="66.53" y="0">0</tspan><tspan x="94.66" y="0">0+</tspan></text><path class="cls-6" d="M41.86,43H12.17c.4-1.88.76-3.7,1.15-5.51C14.14,33.64,15,29.84,15.78,26c.15-.75.44-1,1.17-.93,1.05.06,2.1,0,3.2,0v2c-.29,0-.55.1-.82.11-1.59.05-1.61.05-2,1.67q-1.2,5.5-2.38,11a7.17,7.17,0,0,0-.09.91H39.2L36.3,27.3l-2.43-.11v-2H38Z"/><path class="cls-6" d="M27,31.33c-3.73-4.93-7.32-9.72-8.72-15.71a8.94,8.94,0,1,1,17.47-3.76A11.68,11.68,0,0,1,35.35,17C33.74,22.38,30.52,26.84,27,31.33Zm-.12-3.65.46,0c1.61-2.75,3.3-5.46,4.8-8.28a17.87,17.87,0,0,0,1.49-4.25,6.48,6.48,0,0,0-2.77-7.08,7,7,0,0,0-7.67,0,6.65,6.65,0,0,0-2.83,7.08,26.29,26.29,0,0,0,3.79,8.41C25,25,26,26.32,26.87,27.68Z"/><path class="cls-6" d="M54,56.79v2H0v-2Z"/><path class="cls-6" d="M0,43v-2.1c1.36,0,2.69,0,4,0a1.26,1.26,0,0,0,1-.54c1.57-4.28,3.09-8.58,4.67-13L8,27.15v-2h4.68c-.1.35-.17.68-.29,1-1.89,5.32-3.81,10.64-5.68,16A1.17,1.17,0,0,1,5.32,43C3.57,43,1.82,43,0,43Z"/><path class="cls-6" d="M54,40.93V43c-2,0-3.91,0-5.84,0a.87.87,0,0,1-.64-.51Q44.44,34,41.42,25.4a.8.8,0,0,1,0-.26h4.49c.53,1.69.37,1.94-1.44,2.22a6.74,6.74,0,0,0,.16.78c1.42,4,2.87,7.94,4.25,11.92a1.11,1.11,0,0,0,1.3.89C51.42,40.89,52.65,40.93,54,40.93Z"/><path class="cls-6" d="M10.14,21.57v-2h6.59v2Z"/><path class="cls-6" d="M37.25,21.55v-2h6.58v2Z"/><path class="cls-6" d="M1.12,48.83H4.28v2.08c-.9,0-1.83,0-2.75,0-.15,0-.35-.44-.39-.7A8.36,8.36,0,0,1,1.12,48.83Z"/><path class="cls-6" d="M7.89,48.83h3.17v2.08c-.91,0-1.84,0-2.75,0-.16,0-.36-.44-.4-.7A8.36,8.36,0,0,1,7.89,48.83Z"/><path class="cls-6" d="M14.67,48.83h3.15v2.09c-.9,0-1.77,0-2.63,0-.19,0-.46-.37-.5-.61A8.55,8.55,0,0,1,14.67,48.83Z"/><path class="cls-6" d="M21.44,48.83h3.15v2.09c-.9,0-1.77,0-2.63,0-.19,0-.46-.37-.5-.61A8.55,8.55,0,0,1,21.44,48.83Z"/><path class="cls-6" d="M31.36,50.94H30c-2,0-2,0-1.69-2.08h3.05Z"/><path class="cls-6" d="M35,48.83h3.15v2.09c-.89,0-1.76,0-2.62,0-.19,0-.46-.37-.51-.6A8.69,8.69,0,0,1,35,48.83Z"/><path class="cls-6" d="M44.93,48.84v2.09c-.9,0-1.76,0-2.61,0-.21,0-.49-.41-.55-.67a7,7,0,0,1,0-1.38Z"/><path class="cls-6" d="M48.52,48.85h3.17v2.07c-.9,0-1.8,0-2.68,0-.18,0-.42-.4-.47-.65A9.07,9.07,0,0,1,48.52,48.85Z"/><path class="cls-6" d="M27,17.07a3.3,3.3,0,1,1,3.35-3.25A3.34,3.34,0,0,1,27,17.07Zm1.2-3.64c-.3-.22-.7-.73-1.17-.8-.69-.1-1.17.4-1.17,1.16A1,1,0,0,0,27,14.92C27.73,14.94,28.1,14.49,28.2,13.43Z"/><text class="cls-7" transform="translate(225 22.8)">he<tspan class="cls-8" x="20.65" y="0">c</tspan><tspan class="cls-9" x="30.47" y="0">t</tspan><tspan class="cls-10" x="36.77" y="0">a</tspan></text></g></g></svg>