<svg xmlns="http://www.w3.org/2000/svg" viewBox="0 0 216.81 61.08"><defs><style>.cls-1{fill:#276c38;}.cls-2{fill:#404041;}</style></defs><g id="Layer_2" data-name="Layer 2"><g id="Layer_1-2" data-name="Layer 1"><path class="cls-1" d="M33.11,39.13c-.79,3.95-1.6,7.9-2.38,11.86-.12.61-.28,1.21-1,1s-.64-.77-.52-1.38c.64-3.08,1.24-6.18,1.85-9.27.06-.3.09-.61.18-1.2-1.15,1.08-2.13,2-3.05,2.86a1,1,0,0,1-1.72,0,21.11,21.11,0,0,0-3-2.56l1.23,6.21c.27,1.36.5,2.72.81,4.07.13.6.11,1.12-.55,1.27s-.9-.35-1-.93L21.54,39.42a1.72,1.72,0,0,0-.11-.29,3.45,3.45,0,0,0-2.81,5l3.18,6.36c.27.53.58,1.1-.12,1.48s-1.05-.25-1.32-.79c-1-2-2-4.09-3.07-6.08-.82-1.51-1.28-2.94,0-4.47-2.37,0-3.68,1.21-3.69,3.39v6.72c0,.61,0,1.34-.84,1.32s-.8-.73-.8-1.35c0-2.34,0-4.69,0-7a4.18,4.18,0,0,1,3-4.19c1.88-.65,3.77-1.26,5.64-1.9,1.3-.43,1.61-.87,1.62-2.26a.41.41,0,0,1,0-.11,3.84,3.84,0,0,0-1.53-3.93,7.82,7.82,0,0,1-2.51-4.36,3.12,3.12,0,0,0-.73-1.32,9.32,9.32,0,0,1,2.33-15.14,1.9,1.9,0,0,0,1.07-1.29,6.74,6.74,0,0,1,12.94,0,1.88,1.88,0,0,0,1.09,1.27,9.31,9.31,0,0,1,2.35,15.07,3.35,3.35,0,0,0-.79,1.41A10.32,10.32,0,0,1,33,32.22a1.78,1.78,0,0,0-.58,1.2c0,3.86-.39,3.49,3.32,4.74,1.31.44,2.63.85,3.93,1.32a4.15,4.15,0,0,1,3,4.1c0,2.41,0,4.83,0,7.25,0,.61-.07,1.23-.83,1.22S41,51.38,41,50.79c0-2.06-.07-4.12,0-6.18.11-2.69-.68-3.54-3.79-4.13,1.61,1.84.67,3.44-.18,5.08-1,1.88-1.88,3.81-2.9,5.68-.2.36-.85.8-1.15.71-.73-.2-.54-.83-.26-1.39C33.88,48.28,35,46,36.17,43.73a2,2,0,0,0,0-2C35.51,40.48,35.08,39,33.11,39.13Zm-14-26.29c-3.77,2.69-3.54,8.52-1.18,10.62,0-.33,0-.6,0-.86a6.45,6.45,0,0,1,1.84-4.19c.24-.24.79-.15,1.2-.2,0,.41.17,1,0,1.2-2,2.49-1.69,5.3-.87,8a7.55,7.55,0,0,0,8.5,5A7.74,7.74,0,0,0,35,25c.05-1.42.05-2.75-1.79-3.09-.19,0-.4-.57-.38-.86a.89.89,0,0,1,.63-.54,1.73,1.73,0,0,1,1.21.25c.82.76,1.54,1.63,2.33,2.51-.17.13-.07.08,0,0a7.46,7.46,0,0,0,.79-7.57,7,7,0,0,0-6.17-4.57c-2.86-.19-5.75-.09-8.63,0a13.28,13.28,0,0,0-2.62.61A14.87,14.87,0,0,0,29,19.47a4.93,4.93,0,0,1,1.19.42,3.82,3.82,0,0,1,.67.93,9.6,9.6,0,0,1-1.12.54c-.13.05-.33-.08-.5-.13A16.66,16.66,0,0,1,19.07,12.84ZM31.12,38l-.53-4.47a9.32,9.32,0,0,1-6.58,0L23.44,38l3.82,3.6c.23-.18.4-.3.55-.44Zm1-28.53A5,5,0,0,0,26.76,6a4.68,4.68,0,0,0-4.23,3.49Z"/><path class="cls-1" d="M9.56,39.1,8.49,42a4.16,4.16,0,0,1,1,.76A4.08,4.08,0,0,1,10,44l-1.3.09s-.06,0-.09-.06c-1.54-1.63-3.24-1.36-5.09-.54a2.78,2.78,0,0,0-1.91,2.65c0,1.53,0,3.06,0,4.59,0,.61,0,1.34-.85,1.3S0,51.35,0,50.76c0-1.53,0-3.06,0-4.59a4.13,4.13,0,0,1,2.91-4.12c1.23-.44,2.48-.83,3.72-1.26a1.78,1.78,0,0,0,.63-2.88,6.21,6.21,0,0,1-2.16-4.68,1.73,1.73,0,0,0-.24-.79A5,5,0,0,1,8.44,25a17.31,17.31,0,0,1,5.28,0,5.05,5.05,0,0,1,3.56,7.39A3.76,3.76,0,0,0,17,33.61a5.92,5.92,0,0,1-7.21,5.5A.92.92,0,0,0,9.56,39.1ZM11,37.62a4.25,4.25,0,0,0,4.27-3.54c.07-.44.29-1-.45-1.21C12.9,32.26,11,31.58,9,31a2.85,2.85,0,0,0-2.26,1.38A4.42,4.42,0,0,0,11,37.62Zm4.79-6.12a3.43,3.43,0,0,0-2.63-5A33.48,33.48,0,0,0,9,26.5a3.27,3.27,0,0,0-2.91,4,5.29,5.29,0,0,0,.9-.56,2.66,2.66,0,0,1,3.1-.42C12,30.27,13.91,30.86,15.83,31.5Z"/><path class="cls-1" d="M46.1,42l-1-2.81a15.55,15.55,0,0,1-2.26,0,6,6,0,0,1-5.22-5.7,3.37,3.37,0,0,0-.21-1c-1.64-3.42.1-7.07,3.79-7.56a17.31,17.31,0,0,1,5.18.1,5.06,5.06,0,0,1,3.43,7.31,2.77,2.77,0,0,0-.3,1.09,6.17,6.17,0,0,1-2,4.33,1.76,1.76,0,0,0,.67,3.09c1.17.4,2.35.78,3.51,1.2a4.14,4.14,0,0,1,2.92,4.12c0,1.6.05,3.2,0,4.79,0,.38-.41,1-.72,1.06-.69.13-.84-.48-.84-1.06,0-1.52,0-3.05,0-4.58a2.68,2.68,0,0,0-2.12-2.92,2.49,2.49,0,0,1-.29-.11,3.41,3.41,0,0,0-4.41.59.64.64,0,0,1-.36.22c-.4,0-.8-.09-1.21-.14A3.37,3.37,0,0,1,45,42.86,5.33,5.33,0,0,1,46.1,42Zm-6.87-9c0,.22,0,.43,0,.64a4.32,4.32,0,0,0,8.58.14.85.85,0,0,0-.69-1.07c-1.73-.53-3.43-1.12-5.14-1.69A2.05,2.05,0,0,0,39.23,33.08Zm-.73-2.53a2,2,0,0,0,.46-.27,3.23,3.23,0,0,1,4.13-.53,4.81,4.81,0,0,0,.7.25l4.56,1.51a3.47,3.47,0,0,0-3-5c-1.24,0-2.48,0-3.72,0A3.31,3.31,0,0,0,38.5,30.55Z"/><path class="cls-1" d="M5.85,49.64a7.84,7.84,0,0,1,0,1.68c-.06.29-.54.74-.72.7a1.24,1.24,0,0,1-.79-.77,22.43,22.43,0,0,1,0-3.38c0-.27.49-.76.67-.73a1.21,1.21,0,0,1,.84.71,8.2,8.2,0,0,1,0,1.79Z"/><path class="cls-1" d="M50.32,49.72a5.54,5.54,0,0,1,0,1.47c-.09.33-.47.59-.72.88-.28-.26-.77-.51-.79-.79a21.19,21.19,0,0,1,0-3.38c0-.29.51-.54.79-.81.26.31.66.59.74.94A7.3,7.3,0,0,1,50.32,49.72Z"/><path class="cls-1" d="M91.31,4.94,85,7.34V3.74L94.77,0V34.08H91.31Z"/><path class="cls-1" d="M115.12,34.37a8.94,8.94,0,0,1-4.66-1.23A10.1,10.1,0,0,1,107,29.69a17.94,17.94,0,0,1-2.13-5.38,30.06,30.06,0,0,1-.75-7A28.89,28.89,0,0,1,105,10a17.41,17.41,0,0,1,2.33-5.38,10.63,10.63,0,0,1,3.46-3.31A8.37,8.37,0,0,1,115,.19a8.78,8.78,0,0,1,4.63,1.23,10.37,10.37,0,0,1,3.46,3.45,17.19,17.19,0,0,1,2.14,5.38,31.26,31.26,0,0,1,.72,7,28.89,28.89,0,0,1-.84,7.32,17.64,17.64,0,0,1-2.31,5.38,10.36,10.36,0,0,1-3.43,3.31A8.37,8.37,0,0,1,115.12,34.37Zm0-3.36a5.43,5.43,0,0,0,2.76-.77,6.65,6.65,0,0,0,2.3-2.42,14.34,14.34,0,0,0,1.56-4.28,29.94,29.94,0,0,0,.58-6.31,29.32,29.32,0,0,0-.56-6.09,14.7,14.7,0,0,0-1.51-4.28A6.72,6.72,0,0,0,118,4.37a5.59,5.59,0,0,0-3-.82,5.43,5.43,0,0,0-2.76.77,6.88,6.88,0,0,0-2.33,2.42A14.32,14.32,0,0,0,108.3,11a30,30,0,0,0-.57,6.31,29.34,29.34,0,0,0,.55,6.12,14.39,14.39,0,0,0,1.53,4.25,6.87,6.87,0,0,0,2.33,2.49A5.59,5.59,0,0,0,115.12,31Z"/><path class="cls-1" d="M143.24,34.37a8.9,8.9,0,0,1-4.65-1.23,10.1,10.1,0,0,1-3.46-3.45A17.68,17.68,0,0,1,133,24.31a30.06,30.06,0,0,1-.75-7,28.89,28.89,0,0,1,.84-7.32,17.41,17.41,0,0,1,2.33-5.38,10.54,10.54,0,0,1,3.46-3.31A8.37,8.37,0,0,1,143.1.19a8.78,8.78,0,0,1,4.63,1.23,10.46,10.46,0,0,1,3.46,3.45,17.19,17.19,0,0,1,2.13,5.38,31.26,31.26,0,0,1,.72,7,28.89,28.89,0,0,1-.84,7.32,17.63,17.63,0,0,1-2.3,5.38,10.46,10.46,0,0,1-3.43,3.31A8.38,8.38,0,0,1,143.24,34.37Zm0-3.36a5.43,5.43,0,0,0,2.76-.77,6.67,6.67,0,0,0,2.31-2.42,14.91,14.91,0,0,0,1.56-4.28,30,30,0,0,0,.57-6.31,29.37,29.37,0,0,0-.55-6.09,15,15,0,0,0-1.51-4.28,6.72,6.72,0,0,0-2.3-2.49,5.59,5.59,0,0,0-3-.82,5.43,5.43,0,0,0-2.76.77A6.79,6.79,0,0,0,138,6.74,14.05,14.05,0,0,0,136.43,11a29.29,29.29,0,0,0-.58,6.31,30,30,0,0,0,.55,6.12,14.39,14.39,0,0,0,1.54,4.25,6.87,6.87,0,0,0,2.33,2.49A5.56,5.56,0,0,0,143.24,31Z"/><path class="cls-1" d="M173.58,7.06V15.6h8.54v3.12h-8.54v8.5h-3.12v-8.5H162V15.6h8.5V7.06Z"/><path class="cls-2" d="M88.56,44.52a5.68,5.68,0,0,1,4.3,1.82,6.68,6.68,0,0,1,0,9,5.64,5.64,0,0,1-4.3,1.82h-5V51.85H82.49V50.11h1.12V44.52Zm0,10.63a3.76,3.76,0,0,0,2.9-1.23,4.8,4.8,0,0,0,0-6.19,3.75,3.75,0,0,0-2.9-1.22H85.68v3.6h2.89v1.74H85.68v3.3Z"/><path class="cls-2" d="M104,49.26A4.76,4.76,0,0,1,97.23,56,4.76,4.76,0,0,1,104,49.26Zm-3.37,6.21a2.72,2.72,0,0,0,2-.81,3,3,0,0,0,0-4.07,2.87,2.87,0,0,0-4,0,3,3,0,0,0,0,4.07A2.72,2.72,0,0,0,100.6,55.47Zm0-9.76L99.73,47H97.9l1.76-2.35h1.89L103.34,47H101.5Zm-.87,15A1.22,1.22,0,0,1,101.48,59a1.2,1.2,0,0,1,0,1.71A1.21,1.21,0,0,1,99.75,60.73Z"/><path class="cls-2" d="M107.22,46.72A1.22,1.22,0,0,1,109,45a1.2,1.2,0,0,1,0,1.71A1.21,1.21,0,0,1,107.22,46.72Zm-.11,10.41v-9h2v9Z"/><path class="cls-2" d="M124,51.6v5.53h-1.94V51.8a1.88,1.88,0,0,0-2-2.09c-1.37,0-2.29.85-2.29,2.59v4.83h-1.94v-9h1.94v1.15a3.08,3.08,0,0,1,2.79-1.39C122.61,47.89,124,49.3,124,51.6Z"/><path class="cls-2" d="M133.25,48.13h1.91v8.58a3.82,3.82,0,0,1-1.35,3.15,5,5,0,0,1-3.28,1.1c-2.07,0-3.49-.72-4.26-2.18l1.67-1a2.69,2.69,0,0,0,2.63,1.39,2.38,2.38,0,0,0,2.68-2.49V55.62a3.61,3.61,0,0,1-3.13,1.56,4.31,4.31,0,0,1-3.22-1.35,4.54,4.54,0,0,1-1.32-3.29,4.49,4.49,0,0,1,1.32-3.28,4.26,4.26,0,0,1,3.22-1.37,3.6,3.6,0,0,1,3.13,1.57Zm-2.86,7.23a2.72,2.72,0,0,0,2-.81,2.86,2.86,0,0,0,0-4,2.76,2.76,0,0,0-2-.81,2.82,2.82,0,0,0-2,.81,2.89,2.89,0,0,0,0,4A2.78,2.78,0,0,0,130.39,55.36Z"/><path class="cls-2" d="M143.49,48.13h1.95v9h-1.95V56a3.08,3.08,0,0,1-2.79,1.38c-2.07,0-3.46-1.4-3.46-3.71V48.13h1.95v5.33a1.87,1.87,0,0,0,2,2.08c1.36,0,2.28-.84,2.28-2.59Zm-5-1.21c0-2.63,1.59-3,3-2,.78.63,1.12.59,1.12-.42h1.6c0,2.63-1.55,3-3,2-.79-.63-1.14-.6-1.14.41Z"/><path class="cls-2" d="M160.4,51.6v5.53h-2V51.8a1.88,1.88,0,0,0-2-2.09c-1.37,0-2.28.85-2.28,2.59v4.83h-2v-9h2v1.15a3.07,3.07,0,0,1,2.79-1.39C159,47.89,160.4,49.3,160.4,51.6Z"/><path class="cls-2" d="M170.67,51.6v5.53h-1.94V51.8a1.88,1.88,0,0,0-2-2.09c-1.37,0-2.28.85-2.28,2.59v4.83h-2V44.52h2v4.76a3.07,3.07,0,0,1,2.79-1.39C169.29,47.89,170.67,49.3,170.67,51.6Z"/><path class="cls-2" d="M179.89,48.13h1.94v9h-1.94v-1.3a3.63,3.63,0,0,1-3.15,1.53A4.2,4.2,0,0,1,173.57,56a4.95,4.95,0,0,1,0-6.73,4.2,4.2,0,0,1,3.17-1.37,3.68,3.68,0,0,1,3.15,1.51ZM177,55.51a2.78,2.78,0,0,0,2-.81,2.85,2.85,0,0,0,.81-2.07,2.76,2.76,0,0,0-.81-2.05,2.91,2.91,0,0,0-4.07,0,2.76,2.76,0,0,0-.81,2.05A2.85,2.85,0,0,0,175,54.7,2.76,2.76,0,0,0,177,55.51Zm.63-9.8-.95,1.34h-2l1.91-2.53h2l1.91,2.53h-2Z"/><path class="cls-2" d="M192.29,51.6v5.53h-1.94V51.8a1.88,1.88,0,0,0-2-2.09c-1.37,0-2.29.85-2.29,2.59v4.83H184.1v-9H186v1.15a3.09,3.09,0,0,1,2.79-1.39C190.9,47.89,192.29,49.3,192.29,51.6Z"/><path class="cls-2" d="M202.31,51.78c1.39.31,3.19.88,3.16,2.81a2.4,2.4,0,0,1-1,2,4.13,4.13,0,0,1-2.51.74,3.75,3.75,0,0,1-3.67-2.1l1.68-1a1.89,1.89,0,0,0,2,1.3c1,0,1.53-.34,1.53-1s-.75-.92-1.71-1.15c-1.35-.34-3.16-.88-3.13-2.77a2.42,2.42,0,0,1,.94-2,3.95,3.95,0,0,1,5.69,1.12l-1.64.91a1.7,1.7,0,0,0-1.69-1c-.74,0-1.32.32-1.32,1S201.38,51.51,202.31,51.78Z"/><path class="cls-2" d="M213.24,48.13h1.15c.67,0,.78-.29.78-1v-.3h1.64v.3c0,1.43-.44,2.15-1.62,2.34v7.64h-1.95V56a3.08,3.08,0,0,1-2.79,1.38c-2.07,0-3.46-1.4-3.46-3.71V48.13h1.95v5.33a1.87,1.87,0,0,0,2,2.08c1.37,0,2.29-.84,2.29-2.59Zm-3.33,12.6A1.22,1.22,0,1,1,211.64,59a1.2,1.2,0,0,1,0,1.71A1.21,1.21,0,0,1,209.91,60.73Z"/></g></g></svg>