<svg xmlns="http://www.w3.org/2000/svg" viewBox="0 0 199.87 70.44"><defs><style>.cls-1{fill:#276c38;}.cls-2{fill:#404041;}</style></defs><g id="Layer_2" data-name="Layer 2"><g id="Layer_1-2" data-name="Layer 1"><path class="cls-1" d="M52.17,30.67h1.67c-.44,10-4.57,18-13.22,22.94-11.3,6.52-22.08,4.83-32.35-3.41-.66.74-1.36,1.61-2.16,2.39A1.42,1.42,0,0,1,4.94,53a1.46,1.46,0,0,1-.54-1.13c0-2.92,0-5.85,0-8.77,0-.87.35-1.24,1.23-1.24,3,0,5.92,0,8.88,0a1.31,1.31,0,0,1,1,.53,1.32,1.32,0,0,1-.35,1.1c-.73.79-1.55,1.5-2.39,2.31a21.06,21.06,0,0,0,14.08,5.6v1.67a18.67,18.67,0,0,1-5.7-.72A21.83,21.83,0,0,1,11.44,47c-1-.9-1-1.15,0-2.09.36-.35.78-.64,1.17-1l-.16-.24H6.18v6.4c.52-.5,1-.89,1.35-1.33.67-.79,1.26-.75,2,0a24.4,24.4,0,0,0,10.15,6,25.12,25.12,0,0,0,32-19.76C51.88,33.54,52,32.14,52.17,30.67Z"/><path class="cls-1" d="M1.65,30.56H0c.33-9.37,4-17,11.88-22.11,11.58-7.47,22.83-6,33.6,2.49.71-.75,1.45-1.58,2.26-2.34.28-.26.86-.55,1.08-.42a1.48,1.48,0,0,1,.6,1.11c0,3,0,5.92,0,8.88,0,.81-.35,1.18-1.17,1.18-3,0-6,0-9,0a1.35,1.35,0,0,1-1-.58c-.12-.22.1-.76.33-1,.73-.8,1.53-1.53,2.4-2.38A20.87,20.87,0,0,0,27,9.78V8.11a20.87,20.87,0,0,1,7.78,1.38,21.93,21.93,0,0,1,7.57,4.71c1,1,1,1.19,0,2.16a10.57,10.57,0,0,1-1.2.88l.25.31h6.25V11.31l-.23-.17c-.39.45-.79.89-1.18,1.35-.62.75-1.21.72-1.9,0a24.82,24.82,0,0,0-9-5.6A25.14,25.14,0,0,0,2.19,26.25C2,27.63,1.84,29,1.65,30.56Z"/><path class="cls-1" d="M27,45.34A14.73,14.73,0,1,1,41.64,30.55,14.75,14.75,0,0,1,27,45.34Zm-.13-1.73a13,13,0,1,0-13-13A13,13,0,0,0,26.87,43.61Z"/><path class="cls-1" d="M17.88,10l.6,1.34-6.67,4.64-1-1.1A21.94,21.94,0,0,1,17.88,10Z"/><path class="cls-1" d="M35.93,51.25l-.59-1.32,6.73-4.69,1,1A21.5,21.5,0,0,1,35.93,51.25Z"/><path class="cls-1" d="M21.92,10.37l-1.63.52-.6-1.62,1.75-.54Z"/><path class="cls-1" d="M34.12,52l-1.76.53-.45-1.64,1.63-.5Z"/><path class="cls-1" d="M25.1,9.81c-1.62.42-1.71.35-1.63-1.47l1.63-.18Z"/><path class="cls-1" d="M30.28,51.18l.18,1.68-1.72.2V51.35Z"/><path class="cls-1" d="M27.83,38.39h-1.7a3.45,3.45,0,0,1-.07-.83,1.19,1.19,0,0,0-.84-1.38,3.26,3.26,0,0,1-1.79-2.92h1.63a7.58,7.58,0,0,0,.33.73,1.71,1.71,0,0,0,3.23-.92,1.68,1.68,0,0,0-1.52-1.58,10,10,0,0,1-1.37-.24,3.38,3.38,0,0,1-1-5.84c.93-.68,1.67-1.24,1.29-2.54h1.72l.09,1.75A3.61,3.61,0,0,1,30.37,28H28.76a7.46,7.46,0,0,0-.33-.72,1.71,1.71,0,0,0-3.24.91,1.71,1.71,0,0,0,1.53,1.59,8.86,8.86,0,0,1,1.47.26,3.38,3.38,0,0,1,.92,5.81C28.18,36.5,27.44,37.05,27.83,38.39Z"/><path class="cls-1" d="M17.34,30.57H15.78c-.53-4.68,3.92-11.2,11-11.19V21a10,10,0,0,0-6.64,2.84A9.84,9.84,0,0,0,17.34,30.57Z"/><path class="cls-1" d="M27,41.81V40.26c6.26-.63,9.2-4.76,9.57-9.58h1.55C38.42,36.26,33.26,42,27,41.81Z"/><path class="cls-1" d="M85.58,40.08A14.23,14.23,0,0,1,80,39a10.53,10.53,0,0,1-4.49-3.6L78,33.22a9.6,9.6,0,0,0,3.12,2.71,9.19,9.19,0,0,0,4.51,1,9.49,9.49,0,0,0,3.24-.52,7.26,7.26,0,0,0,2.52-1.52A7,7,0,0,0,93,32.6a7.24,7.24,0,0,0,.6-3,6.21,6.21,0,0,0-2.14-5,8.29,8.29,0,0,0-5.59-1.83h-1V19.92h1a5.62,5.62,0,0,0,4.32-1.58,5.73,5.73,0,0,0,1.49-4.08,5.73,5.73,0,0,0-1.47-4,5.57,5.57,0,0,0-4.34-1.61A8.21,8.21,0,0,0,81.6,9.72a9.57,9.57,0,0,0-2.93,2.62l-2.21-2a11.31,11.31,0,0,1,4-3.43,11.17,11.17,0,0,1,5.4-1.37,11.06,11.06,0,0,1,3.89.65A8.68,8.68,0,0,1,92.64,8a7.79,7.79,0,0,1,1.85,2.69A8.73,8.73,0,0,1,95.13,14a7.16,7.16,0,0,1-1.58,4.63,7,7,0,0,1-1.63,1.49,7.09,7.09,0,0,1-1.87.89A8.74,8.74,0,0,1,93,22.18a8.43,8.43,0,0,1,2.21,2,8.78,8.78,0,0,1,1.39,2.64,9.91,9.91,0,0,1,.48,3.1A9.37,9.37,0,0,1,96.19,34a9.88,9.88,0,0,1-2.4,3.22,11.34,11.34,0,0,1-3.62,2.14A13.28,13.28,0,0,1,85.58,40.08Z"/><path class="cls-1" d="M113.71,39.89a9,9,0,0,1-4.66-1.22,10.28,10.28,0,0,1-3.45-3.46,18,18,0,0,1-2.14-5.37,30.79,30.79,0,0,1-.74-7,28.89,28.89,0,0,1,.84-7.32,17,17,0,0,1,2.33-5.37,10.64,10.64,0,0,1,3.45-3.32,8.37,8.37,0,0,1,4.23-1.12,8.8,8.8,0,0,1,4.63,1.22,10.47,10.47,0,0,1,3.45,3.46,16.9,16.9,0,0,1,2.14,5.37,31.41,31.41,0,0,1,.72,7,28.89,28.89,0,0,1-.84,7.32,17.71,17.71,0,0,1-2.3,5.37,10.29,10.29,0,0,1-3.44,3.31A8.27,8.27,0,0,1,113.71,39.89Zm0-3.36a5.34,5.34,0,0,0,2.76-.77,6.57,6.57,0,0,0,2.3-2.42,14.27,14.27,0,0,0,1.56-4.27,29.42,29.42,0,0,0,.58-6.31,29.47,29.47,0,0,0-.55-6.1,14.92,14.92,0,0,0-1.51-4.27,6.77,6.77,0,0,0-2.31-2.5,5.64,5.64,0,0,0-3-.81,5.42,5.42,0,0,0-2.76.76,6.83,6.83,0,0,0-2.33,2.43,14.24,14.24,0,0,0-1.59,4.27,30.14,30.14,0,0,0-.57,6.31,29.34,29.34,0,0,0,.55,6.12,14.39,14.39,0,0,0,1.54,4.25,7,7,0,0,0,2.32,2.5A5.67,5.67,0,0,0,113.71,36.53Z"/><path class="cls-1" d="M141.84,39.89a9,9,0,0,1-4.66-1.22,10.19,10.19,0,0,1-3.45-3.46,18,18,0,0,1-2.14-5.37,30.23,30.23,0,0,1-.74-7,28.89,28.89,0,0,1,.84-7.32A17.23,17.23,0,0,1,134,10.16a10.77,10.77,0,0,1,3.46-3.32,8.36,8.36,0,0,1,4.22-1.12,8.81,8.81,0,0,1,4.64,1.22,10.47,10.47,0,0,1,3.45,3.46,16.9,16.9,0,0,1,2.14,5.37,31.41,31.41,0,0,1,.72,7,28.89,28.89,0,0,1-.84,7.32,17.47,17.47,0,0,1-2.31,5.37,10.26,10.26,0,0,1-3.43,3.31A8.27,8.27,0,0,1,141.84,39.89Zm0-3.36a5.34,5.34,0,0,0,2.76-.77,6.57,6.57,0,0,0,2.3-2.42,14.27,14.27,0,0,0,1.56-4.27,29.42,29.42,0,0,0,.58-6.31,30.18,30.18,0,0,0-.55-6.1A14.91,14.91,0,0,0,147,12.39a6.75,6.75,0,0,0-2.3-2.5,5.67,5.67,0,0,0-3-.81,5.42,5.42,0,0,0-2.76.76,6.81,6.81,0,0,0-2.32,2.43A14,14,0,0,0,135,16.54a30.14,30.14,0,0,0-.57,6.31A29.34,29.34,0,0,0,135,29a14.68,14.68,0,0,0,1.53,4.25,7.07,7.07,0,0,0,2.33,2.5A5.67,5.67,0,0,0,141.84,36.53Z"/><path class="cls-1" d="M171.46,0V1.58h-3.72v11h-1.66v-11h-3.71V0Z"/><path class="cls-1" d="M173.3,5.11a2.84,2.84,0,0,1,2.81-1.67V5.08a2.77,2.77,0,0,0-2,.61,2.56,2.56,0,0,0-.83,2.14V12.6h-1.57v-9h1.57Z"/><path class="cls-1" d="M177.36,1.44a1.06,1.06,0,1,1,2.11,0,1.06,1.06,0,0,1-2.11,0Zm.27,11.16v-9h1.57v9Z"/><path class="cls-1" d="M182.69,8.82A3.07,3.07,0,0,0,186,11.36a2.8,2.8,0,0,0,2.59-1.31l1.34.75a4.44,4.44,0,0,1-4,2,4.81,4.81,0,0,1-3.5-1.33,4.69,4.69,0,0,1-1.33-3.41,4.64,4.64,0,0,1,1.31-3.38,4.58,4.58,0,0,1,3.41-1.35A4.13,4.13,0,0,1,189,4.77a4.75,4.75,0,0,1,1.26,3.35,5.36,5.36,0,0,1,0,.7Zm0-1.36h6a2.85,2.85,0,0,0-2.9-2.62A3,3,0,0,0,182.69,7.46ZM185.86,1l-1,1.37h-1.57L185.05.14h1.6l1.79,2.27h-1.57Zm-1,14.16a1.06,1.06,0,1,1,2.11,0,1.06,1.06,0,0,1-2.11,0Z"/><path class="cls-1" d="M198.3,3.6h1.57v9H198.3V11.31a3.19,3.19,0,0,1-2.92,1.53,3.37,3.37,0,0,1-3.49-3.71V3.6h1.57V9a2.08,2.08,0,0,0,2.23,2.3c1.57,0,2.61-.95,2.61-3Z"/><path class="cls-1" d="M163.23,21h1.68v8.3a3.06,3.06,0,0,0,6.12,0V21h1.66v8.37a4.2,4.2,0,0,1-1.32,3.26,4.81,4.81,0,0,1-3.4,1.2,4.86,4.86,0,0,1-3.42-1.2,4.24,4.24,0,0,1-1.32-3.26Z"/><path class="cls-1" d="M174.54,30.74l1.44-.83a3.16,3.16,0,0,0,3.37,2.29c1.72,0,2.66-.78,2.66-2a1.54,1.54,0,0,0-.68-1.35A9.68,9.68,0,0,0,179,28l-1.21-.4c-.27-.11-.63-.27-1-.47a2.88,2.88,0,0,1-1.71-2.75,3.19,3.19,0,0,1,1.15-2.6,4.28,4.28,0,0,1,2.81-1,4.53,4.53,0,0,1,4.27,2.76l-1.41.81A2.88,2.88,0,0,0,179,22.38c-1.37,0-2.29.72-2.29,1.88a1.46,1.46,0,0,0,.6,1.26,7.9,7.9,0,0,0,2.05.9l.74.23.66.25a7.08,7.08,0,0,1,1.26.6,2.79,2.79,0,0,1,1,.82,2.58,2.58,0,0,1,.63,1.89,3.25,3.25,0,0,1-1.21,2.65,4.86,4.86,0,0,1-3.15,1A4.71,4.71,0,0,1,174.54,30.74Z"/><path class="cls-1" d="M190.47,21a5.6,5.6,0,0,1,4.27,1.83,6.31,6.31,0,0,1,1.71,4.47,6.37,6.37,0,0,1-1.71,4.48,5.62,5.62,0,0,1-4.27,1.82h-4.92V21Zm0,11a4.06,4.06,0,0,0,3.15-1.35,4.86,4.86,0,0,0,1.23-3.37,4.86,4.86,0,0,0-1.23-3.37,4.06,4.06,0,0,0-3.15-1.35h-3.24V32Z"/><path class="cls-2" d="M92.56,54v2H89V66.6H86.94V56H83.38V54Z"/><path class="cls-2" d="M100,58.74a4.82,4.82,0,1,1-3.37-1.37A4.55,4.55,0,0,1,100,58.74ZM96.59,65a2.71,2.71,0,0,0,2-.81,3,3,0,0,0,0-4.07,2.82,2.82,0,0,0-4.81,2,2.75,2.75,0,0,0,.82,2A2.7,2.7,0,0,0,96.59,65Zm0-9.76-.88,1.24H93.89l1.77-2.34h1.89l1.78,2.34H97.49Zm1.93-.47c0-.79.09-1,.5-1.3,0,0,.22-.14.22-.12a.42.42,0,0,0,.23-.36c0-.15-.07-.22-.32-.22a.71.71,0,0,0-.74.52l-1.1-.46a1.86,1.86,0,0,1,1.84-1.23,1.38,1.38,0,0,1,1.56,1.37,1.34,1.34,0,0,1-.7,1.22c-.2.09-.3.18-.27.58Z"/><path class="cls-2" d="M111.3,61.08V66.6h-1.94V61.28a1.88,1.88,0,0,0-2-2.09c-1.37,0-2.29.84-2.29,2.59V66.6h-1.94v-9h1.94v1.15a3.09,3.09,0,0,1,2.79-1.38C109.91,57.37,111.3,58.77,111.3,61.08Z"/><path class="cls-2" d="M120.55,57.6h1.91v8.59a3.83,3.83,0,0,1-1.35,3.15,5,5,0,0,1-3.28,1.1c-2.07,0-3.49-.72-4.26-2.18l1.67-1a2.68,2.68,0,0,0,2.63,1.38,2.37,2.37,0,0,0,2.68-2.48v-1.1a3.6,3.6,0,0,1-3.13,1.57,4.31,4.31,0,0,1-3.22-1.35,4.57,4.57,0,0,1-1.32-3.3,4.47,4.47,0,0,1,1.32-3.27,4.26,4.26,0,0,1,3.22-1.37,3.61,3.61,0,0,1,3.13,1.56Zm-2.86,7.24a2.76,2.76,0,0,0,2-.81,2.86,2.86,0,0,0,0-4,2.76,2.76,0,0,0-2-.81,2.82,2.82,0,0,0-2,.81,2.91,2.91,0,0,0,0,4A2.82,2.82,0,0,0,117.69,64.84Z"/><path class="cls-2" d="M134.25,59.47H132V63.8c0,1.15.75,1.13,2.23,1.06V66.6c-3,.36-4.18-.45-4.18-2.8V59.47h-1.65V57.6h1.65V55.66l2-.58V57.6h2.23Z"/><path class="cls-2" d="M143.23,57.6h2v9h-2V65.31a3.65,3.65,0,0,1-3.15,1.53,4.21,4.21,0,0,1-3.17-1.37,4.7,4.7,0,0,1-1.31-3.37,4.64,4.64,0,0,1,1.31-3.36,4.21,4.21,0,0,1,3.17-1.37,3.66,3.66,0,0,1,3.15,1.51ZM140.39,65a2.76,2.76,0,0,0,2-.81,2.84,2.84,0,0,0,.81-2.07,2.79,2.79,0,0,0-.81-2.05,2.91,2.91,0,0,0-4.07,0,2.79,2.79,0,0,0-.81,2.05,2.84,2.84,0,0,0,.81,2.07A2.78,2.78,0,0,0,140.39,65Zm2.25-8.55h-1.88L138.86,54h2.34Z"/><path class="cls-2" d="M147.55,56.2a1.22,1.22,0,0,1,1.73-1.71,1.2,1.2,0,0,1,0,1.71A1.21,1.21,0,0,1,147.55,56.2Zm-.11,10.4v-9h1.95v9Z"/><path class="cls-2" d="M159.57,61.26c1.39.3,3.19.88,3.15,2.81a2.4,2.4,0,0,1-1,2,4.13,4.13,0,0,1-2.51.74,3.74,3.74,0,0,1-3.67-2.11l1.68-1a1.9,1.9,0,0,0,2,1.3c1,0,1.53-.35,1.53-1S160,63.13,159,62.9c-1.35-.35-3.17-.89-3.13-2.78a2.44,2.44,0,0,1,.94-2,3.68,3.68,0,0,1,2.36-.75,3.64,3.64,0,0,1,3.33,1.87l-1.64.92a1.7,1.7,0,0,0-1.69-1c-.74,0-1.32.33-1.32,1S158.64,61,159.57,61.26Z"/><path class="cls-2" d="M171.56,57.6h1.95v9h-1.95V65.31a3.64,3.64,0,0,1-3.15,1.53,4.23,4.23,0,0,1-3.17-1.37,4.7,4.7,0,0,1-1.31-3.37,4.64,4.64,0,0,1,1.31-3.36,4.23,4.23,0,0,1,3.17-1.37,3.65,3.65,0,0,1,3.15,1.51ZM168.72,65a2.76,2.76,0,0,0,2-.81,2.84,2.84,0,0,0,.81-2.07,2.79,2.79,0,0,0-.81-2.05,2.91,2.91,0,0,0-4.07,0,2.79,2.79,0,0,0-.81,2.05,2.84,2.84,0,0,0,.81,2.07A2.78,2.78,0,0,0,168.72,65Zm.48-8.46c0-.84.11-1,.56-1.4L170,55a.43.43,0,0,0,.27-.4c0-.14-.09-.23-.36-.23a.77.77,0,0,0-.79.58l-1.19-.51a2,2,0,0,1,2-1.31c1,0,1.69.52,1.69,1.46a1.46,1.46,0,0,1-.75,1.31c-.22.11-.35.2-.29.63Z"/><path class="cls-2" d="M184,61.08V66.6H182V61.28a1.87,1.87,0,0,0-2-2.09c-1.36,0-2.28.84-2.28,2.59V66.6h-1.95v-9h1.95v1.15a3.08,3.08,0,0,1,2.79-1.38C182.58,57.37,184,58.77,184,61.08Z"/></g></g></svg>