<svg xmlns="http://www.w3.org/2000/svg" viewBox="0 0 201.05 73.89"><defs><style>.cls-1,.cls-2,.cls-5{fill:#276c38;}.cls-2{font-size:48px;font-family:TildaSans-Regular, Tilda Sans;letter-spacing:-0.01em;}.cls-3{letter-spacing:0em;}.cls-4{letter-spacing:0em;}.cls-5,.cls-8{font-size:18px;}.cls-5{font-family:SVN-GilroyMedium, SVN-Gilroy;font-weight:500;}.cls-6{letter-spacing:-0.07em;}.cls-7{letter-spacing:0em;}.cls-8{fill:#414042;font-family:SVN-GilroySemiBold, SVN-Gilroy;font-weight:600;}.cls-9{letter-spacing:-0.09em;}</style></defs><g id="Layer_2" data-name="Layer 2"><g id="Layer_1-2" data-name="Layer 1"><path class="cls-1" d="M52.17,33.36h1.67c-.44,10-4.57,18-13.22,23-11.3,6.51-22.08,4.83-32.35-3.42-.66.75-1.36,1.62-2.16,2.39a1.43,1.43,0,0,1-1.17.43,1.48,1.48,0,0,1-.54-1.13c0-2.93,0-5.85,0-8.78,0-.87.35-1.24,1.23-1.23,3,0,5.92,0,8.88,0a1.34,1.34,0,0,1,1,.53,1.31,1.31,0,0,1-.35,1.1c-.73.8-1.55,1.51-2.39,2.31a21,21,0,0,0,14.08,5.61v1.67a18.68,18.68,0,0,1-5.7-.73,21.9,21.9,0,0,1-9.71-5.41c-1-.91-1-1.16,0-2.09.36-.35.78-.64,1.17-1l-.16-.24H6.18V52.8c.52-.51,1-.89,1.35-1.34.67-.78,1.26-.74,2,0a24.42,24.42,0,0,0,10.15,6,25.12,25.12,0,0,0,32-19.77C51.88,36.24,52,34.84,52.17,33.36Z"/><path class="cls-1" d="M1.65,33.26H0c.33-9.37,4-17,11.88-22.12,11.58-7.46,22.83-6,33.6,2.5.71-.75,1.45-1.59,2.26-2.35.28-.26.86-.54,1.08-.42a1.49,1.49,0,0,1,.6,1.11c0,3,0,5.92,0,8.88,0,.82-.35,1.19-1.17,1.18-3,0-6,0-9,0a1.32,1.32,0,0,1-1-.58c-.12-.21.1-.75.33-1,.73-.8,1.53-1.53,2.4-2.38a20.92,20.92,0,0,0-14-5.57V10.8a21.07,21.07,0,0,1,7.78,1.38,22.08,22.08,0,0,1,7.57,4.71c1,.95,1,1.19,0,2.17a9.41,9.41,0,0,1-1.2.87l.25.32h6.25V14l-.23-.17c-.39.45-.79.89-1.18,1.35-.62.75-1.21.71-1.9,0A25.08,25.08,0,0,0,2.19,29C2,30.33,1.84,31.73,1.65,33.26Z"/><path class="cls-1" d="M27,48a14.73,14.73,0,1,1,14.64-14.8A14.76,14.76,0,0,1,27,48Zm-.13-1.73a13,13,0,1,0-13-13A13,13,0,0,0,26.87,46.31Z"/><path class="cls-1" d="M17.88,12.66l.6,1.33-6.67,4.65-1-1.1A21.63,21.63,0,0,1,17.88,12.66Z"/><path class="cls-1" d="M35.93,54l-.59-1.32,6.73-4.69,1,1A21.53,21.53,0,0,1,35.93,54Z"/><path class="cls-1" d="M21.92,13.07l-1.63.51L19.69,12l1.75-.54Z"/><path class="cls-1" d="M34.12,54.66l-1.76.53-.45-1.65,1.63-.5Z"/><path class="cls-1" d="M25.1,12.5c-1.62.42-1.71.35-1.63-1.46l1.63-.18Z"/><path class="cls-1" d="M30.28,53.87l.18,1.69-1.72.2V54.05Z"/><path class="cls-1" d="M27.83,41.08h-1.7a3.37,3.37,0,0,1-.07-.83c.09-.7-.18-1-.84-1.37A3.26,3.26,0,0,1,23.43,36h1.63a7.46,7.46,0,0,0,.33.72,1.71,1.71,0,0,0,3.23-.92,1.69,1.69,0,0,0-1.52-1.58,7.69,7.69,0,0,1-1.37-.24,3.37,3.37,0,0,1-1-5.83c.93-.69,1.67-1.24,1.29-2.54h1.72l.09,1.74a3.62,3.62,0,0,1,2.56,3.35H28.76a7.58,7.58,0,0,0-.33-.73,1.6,1.6,0,0,0-2-.88,1.62,1.62,0,0,0-1.25,1.8,1.71,1.71,0,0,0,1.53,1.58,7.94,7.94,0,0,1,1.47.27,3.38,3.38,0,0,1,.92,5.81C28.18,39.19,27.44,39.74,27.83,41.08Z"/><path class="cls-1" d="M17.34,33.26H15.78c-.53-4.67,3.92-11.2,11-11.18v1.64a9.7,9.7,0,0,0-9.48,9.54Z"/><path class="cls-1" d="M27,44.5V43c6.26-.63,9.2-4.76,9.57-9.58h1.55C38.42,39,33.26,44.71,27,44.5Z"/><text class="cls-2" transform="translate(72.05 42.3)">3<tspan class="cls-3" x="27.55" y="0">0</tspan><tspan class="cls-4" x="55.68" y="0">0</tspan></text><text class="cls-5" transform="translate(162.05 15.3)"><tspan class="cls-6">T</tspan><tspan x="8.5" y="0">riệu</tspan><tspan x="0" y="21">U</tspan><tspan class="cls-7" x="11.84" y="21">S</tspan><tspan x="22.16" y="21">D</tspan></text><text class="cls-8" transform="translate(83.11 69.3)"><tspan class="cls-9">T</tspan><tspan x="8.1" y="0">ổng tài sản</tspan></text></g></g></svg>