<svg xmlns="http://www.w3.org/2000/svg" viewBox="0 0 233.65 68.44"><defs><style>.cls-1,.cls-2{fill:#276c38;}.cls-2{font-size:48px;font-family:TildaSans-Regular, Tilda Sans;}.cls-3{letter-spacing:0em;}.cls-4{letter-spacing:0em;}.cls-5{font-size:18px;fill:#414042;font-family:SVN-GilroySemiBold, SVN-Gilroy;font-weight:600;}</style></defs><g id="Layer_2" data-name="Layer 2"><g id="Layer_1-2" data-name="Layer 1"><path class="cls-1" d="M33.11,45.85c-.79,3.95-1.6,7.9-2.38,11.86-.12.61-.28,1.21-1,1s-.64-.77-.52-1.38c.64-3.08,1.24-6.18,1.85-9.27.06-.3.09-.61.18-1.2-1.15,1.08-2.13,2-3.05,2.86a1,1,0,0,1-1.72,0,21.11,21.11,0,0,0-3-2.56l1.23,6.21c.27,1.36.5,2.72.81,4.07.13.6.11,1.12-.55,1.27s-.9-.35-1-.94L21.54,46.14a1.72,1.72,0,0,0-.11-.29,3.45,3.45,0,0,0-2.81,5l3.18,6.36c.27.53.58,1.1-.12,1.48s-1.05-.25-1.32-.79c-1-2-2-4.09-3.07-6.08-.82-1.51-1.28-2.94,0-4.47-2.37,0-3.68,1.21-3.69,3.39v6.72c0,.61,0,1.34-.84,1.32S12,58,12,57.41c0-2.34,0-4.69,0-7a4.18,4.18,0,0,1,3-4.19c1.88-.65,3.77-1.26,5.64-1.9,1.3-.43,1.61-.87,1.62-2.26a.41.41,0,0,1,0-.11A3.84,3.84,0,0,0,20.67,38a7.82,7.82,0,0,1-2.51-4.36,3.12,3.12,0,0,0-.73-1.32,9.32,9.32,0,0,1,2.33-15.14,1.9,1.9,0,0,0,1.07-1.29,6.74,6.74,0,0,1,12.94,0,1.88,1.88,0,0,0,1.09,1.27,9.31,9.31,0,0,1,2.35,15.07,3.35,3.35,0,0,0-.79,1.41A10.32,10.32,0,0,1,33,38.94a1.78,1.78,0,0,0-.58,1.2c0,3.86-.39,3.49,3.32,4.74,1.31.44,2.63.85,3.93,1.32a4.15,4.15,0,0,1,3,4.1c0,2.41,0,4.83,0,7.25,0,.61-.07,1.22-.83,1.22S41,58.1,41,57.51c0-2.06-.07-4.12,0-6.18.11-2.69-.68-3.54-3.79-4.13,1.61,1.84.67,3.44-.18,5.08-1,1.88-1.88,3.81-2.9,5.68-.2.36-.85.8-1.15.71-.73-.2-.54-.83-.26-1.39C33.88,55,35,52.71,36.17,50.45a2,2,0,0,0,0-2C35.51,47.2,35.08,45.76,33.11,45.85Zm-14-26.29c-3.77,2.69-3.54,8.52-1.18,10.62,0-.33,0-.6,0-.86a6.45,6.45,0,0,1,1.84-4.19c.24-.24.79-.15,1.2-.2,0,.41.17,1,0,1.2-2,2.49-1.69,5.3-.87,8a7.55,7.55,0,0,0,8.5,5A7.74,7.74,0,0,0,35,31.75c.05-1.42.05-2.75-1.79-3.09-.19,0-.4-.57-.38-.86a.89.89,0,0,1,.63-.54,1.73,1.73,0,0,1,1.21.25c.82.76,1.54,1.63,2.33,2.51-.17.13-.07.08,0,0a7.46,7.46,0,0,0,.79-7.57,7,7,0,0,0-6.17-4.57c-2.86-.19-5.75-.09-8.63,0a13.28,13.28,0,0,0-2.62.61A14.87,14.87,0,0,0,29,26.19a4.93,4.93,0,0,1,1.19.42,3.82,3.82,0,0,1,.67.93,9.6,9.6,0,0,1-1.12.54c-.13.05-.33-.08-.5-.13A16.66,16.66,0,0,1,19.07,19.56ZM31.12,44.73l-.53-4.47a9.32,9.32,0,0,1-6.58,0l-.57,4.45,3.82,3.6c.23-.18.4-.3.55-.44Zm1-28.53a5,5,0,0,0-5.39-3.49,4.68,4.68,0,0,0-4.23,3.49Z"/><path class="cls-1" d="M9.56,45.82,8.49,48.75a4.16,4.16,0,0,1,1,.76A4.08,4.08,0,0,1,10,50.74l-1.3.09s-.06,0-.09-.06c-1.54-1.63-3.24-1.36-5.09-.54a2.78,2.78,0,0,0-1.91,2.65c0,1.53,0,3.06,0,4.59,0,.61,0,1.34-.85,1.3S0,58.07,0,57.48C0,56,0,54.42,0,52.89a4.13,4.13,0,0,1,2.91-4.12c1.23-.44,2.48-.83,3.72-1.26a1.78,1.78,0,0,0,.63-2.88A6.21,6.21,0,0,1,5.11,40a1.73,1.73,0,0,0-.24-.79,5,5,0,0,1,3.57-7.45,17.31,17.31,0,0,1,5.28,0,5.05,5.05,0,0,1,3.56,7.39A3.76,3.76,0,0,0,17,40.33a5.92,5.92,0,0,1-7.21,5.5A.92.92,0,0,0,9.56,45.82ZM11,44.34a4.25,4.25,0,0,0,4.27-3.54c.07-.44.29-1-.45-1.21C12.9,39,11,38.29,9,37.67a2.85,2.85,0,0,0-2.26,1.38A4.42,4.42,0,0,0,11,44.34Zm4.79-6.12a3.43,3.43,0,0,0-2.63-5,33.48,33.48,0,0,0-4.25,0,3.27,3.27,0,0,0-2.91,4,5.29,5.29,0,0,0,.9-.56,2.66,2.66,0,0,1,3.1-.42C12,37,13.91,37.58,15.83,38.22Z"/><path class="cls-1" d="M46.1,48.75l-1-2.81a14.31,14.31,0,0,1-2.26,0,5.93,5.93,0,0,1-5.22-5.69,3.37,3.37,0,0,0-.21-1c-1.64-3.42.1-7.07,3.79-7.56a17.31,17.31,0,0,1,5.18.1,5.06,5.06,0,0,1,3.43,7.31,2.77,2.77,0,0,0-.3,1.09,6.17,6.17,0,0,1-2,4.33,1.76,1.76,0,0,0,.67,3.09c1.17.4,2.35.78,3.51,1.2a4.13,4.13,0,0,1,2.92,4.12c0,1.6.05,3.2,0,4.79,0,.38-.41,1-.72,1.06-.69.13-.84-.48-.84-1.06,0-1.52,0-3,0-4.58a2.68,2.68,0,0,0-2.12-2.92,2.49,2.49,0,0,1-.29-.11,3.41,3.41,0,0,0-4.41.59.64.64,0,0,1-.36.22c-.4,0-.8-.09-1.21-.14A3.37,3.37,0,0,1,45,49.58,5.33,5.33,0,0,1,46.1,48.75Zm-6.87-9c0,.22,0,.43,0,.64a4.32,4.32,0,0,0,8.58.14c0-.59-.09-.89-.69-1.07C45.39,39,43.69,38.39,42,37.82A2.05,2.05,0,0,0,39.23,39.8Zm-.73-2.53A2,2,0,0,0,39,37a3.23,3.23,0,0,1,4.13-.53,4.81,4.81,0,0,0,.7.25l4.56,1.51a3.47,3.47,0,0,0-3-5c-1.24,0-2.48,0-3.72,0A3.31,3.31,0,0,0,38.5,37.27Z"/><path class="cls-1" d="M5.85,56.36a7.84,7.84,0,0,1,0,1.68c-.06.29-.54.74-.72.7A1.24,1.24,0,0,1,4.31,58a22.43,22.43,0,0,1,0-3.38c0-.27.49-.76.67-.73a1.21,1.21,0,0,1,.84.71,8.2,8.2,0,0,1,0,1.79Z"/><path class="cls-1" d="M50.32,56.44a5.54,5.54,0,0,1,0,1.47c-.09.33-.47.59-.72.88-.28-.26-.77-.51-.79-.79a21.19,21.19,0,0,1,0-3.38c0-.29.51-.54.79-.81.26.31.66.59.74.94A7.3,7.3,0,0,1,50.32,56.44Z"/><text class="cls-2" transform="translate(81.8 40.8)">1<tspan class="cls-3" x="19.2" y="0">0</tspan><tspan class="cls-4" x="47.33" y="0">0+</tspan></text><text class="cls-5" transform="translate(81.81 63.85)">Đội ngũ nhân sự</text></g></g></svg>